<?xml version="1.0" standalone="no"?>
<!DOCTYPE svg PUBLIC "-//W3C//DTD SVG 1.1//EN" "http://www.w3.org/Graphics/SVG/1.1/DTD/svg11.dtd" >
<svg xmlns="http://www.w3.org/2000/svg" xmlns:xlink="http://www.w3.org/1999/xlink" version="1.1">
<metadata>
Created by FontForge 20170924 at Sat Sep 18 19:31:12 2021
 By www-data
Copyright (c) 1990 Adobe Systems Incorporated. All Rights Reserved.Granjon is a trademark of Linotype AG and/or its subsidiaries.
</metadata>
<defs>
<font id="GranjonLT" horiz-adv-x="444" >
  <font-face 
    font-family="Granjon LT"
    font-weight="500"
    font-stretch="normal"
    units-per-em="1000"
    panose-1="2 0 6 3 0 0 0 0 0 0"
    ascent="800"
    descent="-200"
    x-height="386"
    cap-height="634"
    bbox="-167 -272 1000 844"
    underline-thickness="50"
    underline-position="-100"
    stemh="34"
    stemv="70"
    unicode-range="U+0020-FFFD"
  />
<missing-glyph horiz-adv-x="222" 
 />
    <glyph glyph-name=".notdef" unicode="&#xfffd;" horiz-adv-x="222" 
 />
    <glyph glyph-name="space" unicode=" " horiz-adv-x="222" 
 />
    <glyph glyph-name="exclam" unicode="!" horiz-adv-x="333" 
d="M152 132l-9 162c-4 67 -22 255 -22 296c0 39 14 68 46 68c33 0 46 -23 46 -61s-6 -78 -10 -122l-34 -343h-17zM124 35c0 24 19 43 43 43s43 -19 43 -43s-19 -43 -43 -43s-43 19 -43 43z" />
    <glyph glyph-name="quotedbl" unicode="&#x22;" horiz-adv-x="333" 
d="M272 561l-17 -204c-1 -8 -1 -31 -17 -31c-15 0 -15 23 -16 31l-17 204c-2 25 -6 81 33 81c40 0 36 -56 34 -81zM128 561l-17 -204c-1 -8 -1 -31 -16 -31c-16 0 -16 23 -17 31l-17 204c-2 25 -6 81 34 81c39 0 35 -56 33 -81z" />
    <glyph glyph-name="numbersign" unicode="#" 
d="M420 247v-44h-99l-28 -203h-51l29 203h-122l-28 -203h-51l29 203h-99v44h106l19 139h-100v44h106l28 204h51l-29 -204h122l28 204h51l-29 -204h92v-44h-99l-19 -139h93zM297 386h-123l-19 -139h123z" />
    <glyph glyph-name="dollar" unicode="$" 
d="M142 728h36v-89c13 2 22 3 34 3s21 -1 32 -3v89h36v-96c67 -18 116 -52 116 -77c0 -16 -10 -25 -26 -25c-34 0 -36 34 -90 70v-253c50 -18 126 -55 126 -174c0 -125 -87 -160 -126 -175v-92h-36v87c-11 -1 -23 -1 -35 -1c-10 0 -19 0 -31 1v-87h-36v92
c-90 20 -126 54 -126 80c0 14 7 32 31 32c31 0 53 -32 95 -66v260c-73 32 -110 89 -110 168c0 70 46 132 110 157v99zM178 296v-268c12 -4 25 -6 38 -6c9 0 20 2 28 4v252c-23 6 -52 14 -66 18zM244 357v257c-10 3 -20 4 -31 4c-13 0 -23 -1 -35 -4v-239
c23 -6 44 -12 66 -18zM280 268v-231c37 17 66 59 66 125c0 60 -40 93 -66 106zM142 386v217c-27 -16 -66 -52 -66 -118c0 -68 38 -86 66 -99z" />
    <glyph glyph-name="percent" unicode="%" horiz-adv-x="778" 
d="M616 676h37l-494 -684h-44l414 572l-2 2c-51 -21 -80 -23 -109 -23c-21 0 -37 6 -53 13c-17 -135 -103 -246 -192 -246c-71 0 -112 59 -112 123c0 121 116 227 215 227c63 0 81 -38 87 -72c15 -12 34 -19 59 -19c108 0 163 68 194 107zM625 342c65 0 90 -41 90 -102
c0 -78 -78 -248 -193 -248c-71 0 -112 59 -112 123c0 121 116 227 215 227zM633 318c-84 0 -171 -156 -171 -232c0 -50 26 -70 64 -70c89 0 165 145 165 235c0 40 -21 67 -58 67zM278 636c-78 0 -165 -156 -165 -232c0 -43 26 -70 64 -70c80 0 164 132 164 242
c-17 15 -22 23 -29 53c-12 6 -19 7 -34 7z" />
    <glyph glyph-name="ampersand" unicode="&#x26;" horiz-adv-x="574" 
d="M345 332h178v-20c-37 -7 -56 -11 -73 -33c-24 -32 -38 -88 -64 -142c15 -18 59 -85 96 -85c30 0 34 36 46 36c7 0 10 -3 10 -9c0 -4 -26 -87 -76 -87c-42 0 -88 57 -112 88c-49 -55 -92 -88 -174 -88c-100 0 -147 71 -147 131c0 66 32 118 111 181c-29 25 -54 54 -54 84
c0 51 51 126 119 126c40 0 67 -22 67 -63c0 -43 -23 -80 -64 -125c35 -39 119 -119 158 -164c12 23 41 85 40 115c-1 17 -18 33 -61 35v20zM79 167c0 -76 80 -127 135 -127c50 0 94 34 116 63c-21 26 -125 142 -171 186c-59 -42 -80 -90 -80 -122zM124 421
c0 -32 36 -60 65 -78c15 12 53 40 53 82c0 34 -21 59 -51 59c-42 0 -67 -36 -67 -63z" />
    <glyph glyph-name="quoteright" unicode="&#x2019;" horiz-adv-x="222" 
d="M55 432v16c39 22 71 60 71 86c0 25 -14 28 -29 33c-20 7 -45 13 -45 48c0 23 13 43 51 43c47 0 67 -42 67 -90c0 -64 -56 -114 -115 -136z" />
    <glyph glyph-name="parenleft" unicode="(" horiz-adv-x="278" 
d="M252 676v-22c-111 -136 -136 -307 -136 -404c0 -153 61 -320 134 -406v-22c-35 25 -204 190 -204 418c0 172 81 320 206 436z" />
    <glyph glyph-name="parenright" unicode=")" horiz-adv-x="278" 
d="M26 -178v22c111 136 136 307 136 404c0 153 -61 320 -134 406v22c35 -25 204 -190 204 -418c0 -172 -81 -320 -206 -436z" />
    <glyph glyph-name="asterisk" unicode="*" 
d="M215 490h12l18 83c10 49 20 61 39 61c16 0 27 -10 27 -24s-4 -23 -20 -49l-50 -75l8 -6l92 52c15 9 30 16 40 16c12 0 22 -11 22 -26c0 -17 -8 -25 -36 -32l-113 -29v-9l111 -25c23 -5 40 -17 40 -36c0 -15 -11 -23 -29 -23s-33 9 -51 21l-77 51l-8 -7l52 -87
c11 -19 18 -36 18 -47c0 -10 -9 -23 -25 -23c-18 0 -32 18 -38 48l-23 106h-10l-25 -118c-5 -25 -14 -36 -31 -36c-15 0 -27 12 -27 24c0 17 11 37 22 57l46 78l-7 5l-72 -50c-23 -16 -48 -21 -60 -21c-11 0 -20 9 -20 21c0 17 20 31 49 38l99 24v9l-107 25
c-25 6 -43 19 -43 35c0 13 11 25 25 25c18 0 30 -8 42 -15l88 -51l8 6l-54 88c-11 17 -17 25 -17 39c0 15 12 27 27 27c16 0 28 -17 37 -56z" />
    <glyph glyph-name="plus" unicode="+" horiz-adv-x="600" 
d="M278 215v171h44v-171h171v-44h-171v-171h-44v171h-171v44h171z" />
    <glyph glyph-name="comma" unicode="," horiz-adv-x="222" 
d="M44 -168v16c62 34 94 71 94 112c0 54 -86 14 -86 83c0 30 19 55 58 55c44 0 76 -48 76 -94c0 -72 -43 -132 -142 -172z" />
    <glyph glyph-name="hyphen" unicode="-" horiz-adv-x="333" 
d="M44 159v44c84 11 168 19 248 24v-44c-98 -11 -162 -17 -248 -24z" />
    <glyph glyph-name="period" unicode="." horiz-adv-x="222" 
d="M58 45c0 29 24 53 53 53s53 -24 53 -53s-24 -53 -53 -53s-53 24 -53 53z" />
    <glyph glyph-name="slash" unicode="/" horiz-adv-x="278" 
d="M22 -8h-45l280 650h45z" />
    <glyph glyph-name="zero" unicode="0" 
d="M222 642c116 0 186 -140 186 -325s-70 -325 -186 -325s-186 140 -186 325s70 325 186 325zM222 622c-80 0 -112 -88 -112 -305s32 -305 112 -305s112 88 112 305s-32 305 -112 305z" />
    <glyph glyph-name="one" unicode="1" 
d="M104 0v16c69 0 81 14 81 90v407c0 45 -9 57 -83 57v16c34 4 88 13 133 49c4 3 9 7 15 7c5 0 9 -3 9 -9v-527c0 -76 12 -90 79 -90v-16h-234z" />
    <glyph glyph-name="two" unicode="2" 
d="M103 58h167c43 0 63 16 76 29c12 12 17 18 23 18s11 -5 11 -11c0 -5 -21 -63 -32 -94h-324v20c76 80 276 316 276 450c0 79 -56 124 -116 124c-64 0 -108 -34 -135 -74l-17 8c36 59 104 114 186 114c100 0 148 -76 148 -147c0 -78 -59 -170 -247 -399
c-15 -19 -28 -32 -28 -35c0 -2 6 -3 12 -3z" />
    <glyph glyph-name="three" unicode="3" 
d="M83 557l-12 11c40 44 91 74 160 74c77 0 120 -38 120 -102c0 -59 -52 -122 -123 -170c66 -27 152 -62 152 -178c0 -75 -60 -200 -250 -200c-61 0 -113 16 -113 43c0 11 6 19 20 19c30 0 54 -38 108 -38c58 0 165 37 165 157c0 95 -91 146 -172 146c-17 0 -25 2 -25 8
s8 10 41 30c15 9 127 71 127 152c0 70 -41 99 -93 99c-44 0 -72 -23 -105 -51z" />
    <glyph glyph-name="four" unicode="4" 
d="M250 238h-231v26l254 378h43v-352h78v-52h-78v-238h-66v238zM250 290v273h-2l-182 -273h184z" />
    <glyph glyph-name="five" unicode="5" 
d="M32 -8v16c81 5 276 50 276 216c0 116 -106 164 -265 164l44 246h224c46 0 48 36 67 36c6 0 10 -5 10 -12s-8 -21 -28 -94l-254 4l-23 -118c14 2 25 4 39 4c156 0 256 -102 256 -217c0 -93 -67 -225 -346 -245z" />
    <glyph glyph-name="six" unicode="6" 
d="M412 642v-12c-216 -38 -270 -190 -281 -275c25 15 57 31 102 31c93 0 179 -73 179 -192c0 -129 -106 -202 -186 -202c-135 0 -190 121 -190 246c0 123 72 377 376 404zM228 366c-66 0 -122 -50 -122 -151c0 -127 49 -203 122 -203s114 68 114 180c0 114 -43 174 -114 174
z" />
    <glyph glyph-name="seven" unicode="7" 
d="M104 676h20c0 -16 3 -27 10 -33c7 -7 19 -9 35 -9h261c-72 -182 -190 -417 -276 -634h-80c118 209 212 362 298 563h-210c-60 0 -70 -2 -102 -66h-22z" />
    <glyph glyph-name="eight" unicode="8" 
d="M380 510c0 -69 -51 -121 -89 -154c37 -26 108 -75 108 -180c0 -98 -65 -184 -181 -184c-99 0 -165 69 -165 145c0 95 86 158 121 182c-40 25 -106 68 -106 159c0 84 59 164 169 164c84 0 143 -55 143 -132zM339 139c0 54 -26 129 -133 164c-37 -23 -103 -66 -103 -154
c0 -90 57 -137 116 -137c43 0 120 34 120 127zM330 509c0 63 -35 113 -94 113c-70 0 -108 -47 -108 -99c0 -101 100 -136 128 -146c35 31 74 68 74 132z" />
    <glyph glyph-name="nine" unicode="9" 
d="M30 -8v12c216 38 270 190 281 275c-25 -15 -57 -31 -102 -31c-93 0 -179 73 -179 192c0 129 106 202 186 202c135 0 190 -121 190 -246c0 -123 -72 -377 -376 -404zM214 268c66 0 122 50 122 151c0 127 -49 203 -122 203s-114 -68 -114 -180c0 -114 43 -174 114 -174z
" />
    <glyph glyph-name="colon" unicode=":" horiz-adv-x="222" 
d="M111 98c29 0 53 -24 53 -53s-24 -53 -53 -53s-53 24 -53 53s24 53 53 53zM111 394c29 0 53 -24 53 -53s-24 -53 -53 -53s-53 24 -53 53s24 53 53 53z" />
    <glyph glyph-name="semicolon" unicode=";" horiz-adv-x="222" 
d="M44 -168v16c62 34 94 71 94 112c0 54 -86 14 -86 83c0 30 19 55 58 55c44 0 76 -48 76 -94c0 -72 -43 -132 -142 -172zM111 394c29 0 53 -24 53 -53s-24 -53 -53 -53s-53 24 -53 53s24 53 53 53z" />
    <glyph glyph-name="less" unicode="&#x3c;" horiz-adv-x="600" 
d="M493 41v-47l-386 177v44l386 177v-47l-332 -152z" />
    <glyph glyph-name="equal" unicode="=" horiz-adv-x="600" 
d="M493 290v-44h-386v44h386zM493 140v-44h-386v44h386z" />
    <glyph glyph-name="greater" unicode="&#x3e;" horiz-adv-x="600" 
d="M107 41l332 152l-332 152v47l386 -177v-44l-386 -177v47z" />
    <glyph glyph-name="question" unicode="?" horiz-adv-x="463" 
d="M144 136l2 250c15 -1 29 -1 48 -1c100 0 125 21 125 66c0 94 -92 123 -145 141c-27 9 -38 18 -38 37c0 20 14 29 35 29c77 0 172 -54 172 -205c0 -75 -33 -136 -99 -141c-57 -4 -72 -7 -74 -36c-3 -24 -6 -81 -7 -140h-19zM111 35c0 24 19 43 43 43s43 -19 43 -43
s-19 -43 -43 -43s-43 19 -43 43z" />
    <glyph glyph-name="at" unicode="@" horiz-adv-x="800" 
d="M520 433l10 38h64l-62 -240c-2 -8 -3 -18 -3 -27c0 -17 10 -34 38 -34c82 0 128 111 128 193c0 110 -100 255 -277 255c-149 0 -269 -116 -269 -318c0 -142 108 -274 278 -274c75 0 133 19 187 43l12 -24c-61 -27 -124 -53 -198 -53c-246 0 -353 184 -353 310
c0 204 158 340 343 340c174 0 307 -118 307 -278c0 -96 -60 -224 -172 -224c-63 0 -86 55 -85 66h-3c-9 -16 -42 -63 -107 -66c-45 -2 -91 29 -91 117c0 101 77 225 186 225c44 0 55 -26 67 -49zM331 257c0 -56 28 -77 59 -77c57 0 116 110 116 203c0 37 -13 59 -41 59
c-47 0 -134 -69 -134 -185z" />
    <glyph glyph-name="A" unicode="A" horiz-adv-x="722" 
d="M448 248h-223l-42 -114c-13 -34 -18 -48 -18 -67c0 -33 24 -45 65 -47v-20h-192v20c65 8 82 31 160 230l78 200c17 44 34 83 34 94c0 10 1 12 5 18l45 68c7 10 10 12 17 12c18 0 16 -29 45 -104l150 -385c46 -116 58 -127 120 -133v-20h-249v20c54 6 68 16 68 36
c0 17 -6 42 -16 68zM236 276h202l-86 221c-6 16 -11 33 -14 44h-2c-12 -40 -41 -111 -49 -132z" />
    <glyph glyph-name="B" unicode="B" horiz-adv-x="611" 
d="M49 0v20c67 0 79 14 79 90c0 104 6 336 6 414c0 76 -12 90 -78 90v20c44 0 88 -2 128 -2c35 0 56 2 97 2c166 0 247 -59 247 -148c0 -111 -92 -136 -160 -154v-2c102 -22 194 -48 194 -170c0 -132 -144 -164 -251 -164c-14 0 -33 1 -54 2c-20 1 -41 2 -60 2h-148z
M214 262v-201c0 -42 10 -45 88 -45c118 0 174 52 174 147c0 114 -74 158 -199 158c-57 0 -63 -9 -63 -59zM214 548v-164c0 -36 9 -39 67 -39c115 0 161 45 161 126c0 101 -50 143 -157 143c-53 0 -71 -20 -71 -66z" />
    <glyph glyph-name="C" unicode="C" horiz-adv-x="667" 
d="M600 440h-18c-22 70 -80 182 -226 182c-114 0 -224 -98 -224 -312c0 -176 103 -298 249 -298c103 0 180 71 219 165h20l-14 -100c-31 -38 -120 -85 -239 -85c-219 0 -335 151 -335 309c0 190 128 341 334 341c70 0 189 -31 239 -78z" />
    <glyph glyph-name="D" unicode="D" horiz-adv-x="759" 
d="M30 0v20c83 0 95 14 95 90v414c0 76 -12 90 -72 90v20h261c155 0 405 -82 405 -328c0 -198 -169 -306 -341 -306h-348zM211 524v-428c0 -48 21 -76 120 -76c176 0 288 106 288 284c0 191 -122 310 -312 310c-75 0 -96 -13 -96 -90z" />
    <glyph glyph-name="E" unicode="E" horiz-adv-x="630" 
d="M32 0v20c82 0 93 14 94 90c2 130 4 270 4 414c0 76 -12 90 -88 90v20h482l21 -114h-16c-46 57 -74 90 -168 90h-86c-50 0 -59 -5 -59 -40v-218h103c86 0 94 13 109 87h22v-218h-22c-11 78 -28 97 -100 97h-112v-252c0 -34 15 -42 64 -42h132c95 0 114 18 178 125h19
c-10 -26 -26 -111 -34 -149h-543z" />
    <glyph glyph-name="F" unicode="F" horiz-adv-x="593" 
d="M32 634h492c15 -55 26 -116 40 -155h-26c-88 128 -91 131 -223 131h-82c-24 0 -28 -8 -29 -44l-4 -228h125c86 0 94 13 109 81h22v-206h-22c-11 72 -28 91 -100 91h-134v-194c1 -76 12 -90 95 -90v-20h-277v20c82 0 93 14 94 90c1 108 4 310 4 414c0 76 -12 90 -84 90v20
z" />
    <glyph glyph-name="G" unicode="G" horiz-adv-x="741" 
d="M644 435h-18c-33 117 -103 187 -225 187c-154 0 -265 -147 -265 -309c0 -250 186 -301 263 -301c104 0 141 37 143 83l4 75c4 76 -12 90 -90 90v20h250v-20c-65 0 -74 -14 -75 -90l-2 -116c-40 -24 -117 -62 -226 -62c-266 0 -367 175 -367 315c0 183 146 335 361 335
c129 0 204 -42 244 -74c5 -37 2 -89 3 -133z" />
    <glyph glyph-name="H" unicode="H" horiz-adv-x="815" 
d="M206 348h400v176c0 76 -12 90 -92 90v20h257v-20c-67 0 -79 -14 -79 -90v-414c0 -76 12 -90 79 -90v-20h-262v20c85 0 97 14 97 90v204h-400v-204c0 -76 12 -90 93 -90v-20h-262v20c71 0 83 14 83 90v414c0 76 -12 90 -78 90v20h254v-20c-78 0 -90 -14 -90 -90v-176z" />
    <glyph glyph-name="I" unicode="I" horiz-adv-x="352" 
d="M206 524v-414c0 -76 12 -90 76 -90v-20h-240v20c66 0 78 14 78 90v414c0 76 -12 90 -78 90v20h254v-20c-78 0 -90 -14 -90 -90z" />
    <glyph glyph-name="J" unicode="J" horiz-adv-x="352" 
d="M21 -178v16c99 39 113 125 113 286v400c0 76 -12 90 -74 90v20h246v-20c-74 0 -86 -14 -86 -90v-397c0 -160 -36 -264 -199 -305z" />
    <glyph glyph-name="K" unicode="K" horiz-adv-x="741" 
d="M389 630l234 4v-16c-44 0 -74 -11 -109 -46l-206 -209l288 -283c48 -48 86 -59 122 -60v-20h-287v20c39 0 61 10 61 27c0 14 -26 50 -75 99l-166 164l-45 -41v-159c0 -76 12 -90 76 -90v-20h-240v20c66 0 78 14 78 90v414c0 76 -12 90 -78 90v20h242v-20
c-66 0 -78 -14 -78 -90v-224l154 147c60 57 94 99 94 129c0 24 -27 35 -65 34v20z" />
    <glyph glyph-name="L" unicode="L" horiz-adv-x="630" 
d="M587 154h23l-32 -160c-34 2 -68 4 -101 5s-66 1 -97 1h-350v20c87 0 99 14 99 90v414c0 76 -12 90 -83 90v20h267v-20c-86 0 -98 -14 -98 -90v-414c0 -77 7 -86 65 -86h78c83 0 171 24 229 130z" />
    <glyph glyph-name="M" unicode="M" horiz-adv-x="852" 
d="M574 0v20c72 4 89 16 88 58c-4 150 -4 304 -10 451h-2c-80 -173 -170 -353 -237 -519h-14c-18 39 -45 116 -77 180c-33 66 -99 213 -158 351h-2c-1 -163 -8 -316 -8 -407c0 -81 18 -114 91 -114v-20h-208v20c57 10 78 24 84 105c10 128 15 323 15 375
c0 102 -14 110 -90 114v20h165l178 -404c14 -32 29 -59 42 -97l241 501h154v-20c-79 -5 -96 -24 -96 -101c0 -39 7 -259 10 -440c1 -40 24 -49 86 -53v-20h-252z" />
    <glyph glyph-name="N" unicode="N" horiz-adv-x="796" 
d="M45 0v20c64 7 86 17 86 129v373c0 74 -34 86 -102 92v20h158c78 -94 405 -444 453 -496c3 118 5 290 5 385c0 59 -18 82 -93 91v20h215v-20c-72 -9 -92 -33 -92 -91c0 -37 -8 -349 -13 -523h-18c-52 82 -325 342 -480 538h-3v-389c0 -112 14 -121 87 -129v-20h-203z" />
    <glyph glyph-name="O" unicode="O" horiz-adv-x="741" 
d="M370 642c198 0 331 -136 331 -325s-133 -325 -331 -325s-331 136 -331 325s133 325 331 325zM370 622c-164 0 -239 -116 -239 -305s75 -305 239 -305s239 116 239 305s-75 305 -239 305z" />
    <glyph glyph-name="P" unicode="P" horiz-adv-x="574" 
d="M39 0v20c73 0 85 14 85 90v414c0 76 -12 90 -89 90v20h274c103 0 234 -38 234 -170c0 -149 -141 -195 -298 -195v24c147 0 212 59 212 166c0 119 -101 151 -168 151s-79 -14 -79 -90v-410c0 -76 12 -90 89 -90v-20h-260z" />
    <glyph glyph-name="Q" unicode="Q" horiz-adv-x="741" 
d="M669 -148v-20c-221 0 -321 32 -368 164c-159 30 -262 155 -262 321c0 189 133 325 331 325s331 -136 331 -325c0 -179 -120 -311 -301 -325c62 -104 157 -140 269 -140zM370 622c-164 0 -239 -116 -239 -305s75 -305 239 -305s239 116 239 305s-75 305 -239 305z" />
    <glyph glyph-name="R" unicode="R" horiz-adv-x="648" 
d="M42 0v20c72 0 84 14 84 90c0 148 4 274 3 414c0 76 -12 90 -73 90v20h194c161 0 270 -49 270 -164c0 -113 -119 -144 -148 -151l165 -244c26 -39 51 -55 86 -55v-20h-111c-9 0 -19 3 -41 37l-172 267h-87v-194c0 -76 12 -90 87 -90v-20h-257zM212 558v-230
c152 0 216 30 216 144c0 92 -73 138 -150 138c-56 0 -66 -12 -66 -52z" />
    <glyph glyph-name="S" unicode="S" horiz-adv-x="500" 
d="M414 612v-133h-16c-30 91 -81 143 -149 143c-49 0 -119 -35 -119 -108c0 -167 329 -136 329 -334c0 -81 -73 -188 -226 -188c-44 0 -145 12 -166 31c-20 18 -23 128 -26 161h15c15 -41 63 -172 185 -172c68 0 144 40 144 128c0 180 -329 126 -329 336
c0 81 60 166 209 166c50 0 102 -6 149 -30z" />
    <glyph glyph-name="T" unicode="T" horiz-adv-x="704" 
d="M656 656h14v-169h-14c-24 91 -68 107 -172 107c-83 0 -92 -3 -92 -88c0 -94 -9 -340 -9 -396c0 -70 19 -86 102 -90v-20h-287v20c93 0 105 14 105 90c0 56 9 302 9 396c0 82 -2 84 -80 84c-105 0 -150 -38 -182 -103h-22l43 169h21c19 -21 43 -32 88 -32h376
c62 0 71 6 100 32z" />
    <glyph glyph-name="U" unicode="U" horiz-adv-x="741" 
d="M30 614v20h271v-20c-95 0 -107 -14 -107 -90v-316c0 -103 74 -176 200 -176c140 0 181 78 186 212l10 280c3 71 -33 90 -95 90v20h215v-20c-70 -8 -82 -28 -86 -154l-8 -234c-3 -116 -41 -234 -245 -234c-165 0 -257 70 -257 218v314c0 76 -12 90 -84 90z" />
    <glyph glyph-name="V" unicode="V" horiz-adv-x="704" 
d="M28 634h260v-20c-77 0 -88 -22 -88 -52c0 -44 75 -188 175 -453c74 171 177 387 177 441c0 40 -27 60 -85 64v20h217v-20c-45 -8 -64 -21 -105 -108c-74 -157 -178 -378 -224 -514h-16l-236 572c-13 33 -36 50 -75 50v20z" />
    <glyph glyph-name="W" unicode="W" horiz-adv-x="981" 
d="M26 634h232v-20c-48 0 -66 -14 -66 -56c0 -46 26 -96 51 -157l105 -261l122 337l-32 82c-19 47 -31 54 -76 55v20h248v-20c-63 0 -82 -20 -82 -46c0 -40 61 -171 146 -435h2c31 81 142 355 142 430c0 38 -24 46 -74 51v20h210v-20c-35 -2 -62 -10 -85 -70l-215 -552h-14
c-31 114 -111 298 -151 433h-2c-50 -140 -110 -290 -161 -433h-10l-210 541c-24 63 -39 79 -80 81v20z" />
    <glyph glyph-name="X" unicode="X" horiz-adv-x="704" 
d="M24 0v20c73 16 93 37 177 146l117 152l-167 234c-35 49 -47 55 -107 62v20h261v-20c-49 -2 -61 -16 -61 -31c0 -32 42 -88 126 -206c28 36 132 162 132 200c0 23 -20 35 -67 37v20h231v-20c-59 -1 -120 -44 -175 -117l-107 -142l176 -253c33 -48 65 -73 120 -82v-20h-282
v20c63 1 81 13 81 34c0 44 -88 153 -145 235c-42 -50 -154 -184 -154 -225c0 -31 41 -40 81 -44v-20h-237z" />
    <glyph glyph-name="Y" unicode="Y" horiz-adv-x="667" 
d="M29 634h243v-20c-44 0 -62 -12 -62 -30c0 -31 40 -85 147 -258c108 171 151 214 151 255c0 23 -14 33 -53 33v20h183v-20c-33 -3 -58 -13 -105 -80l-165 -237v-187c0 -85 14 -89 102 -90v-20h-290v20c88 1 102 5 102 90v188l-168 252c-35 52 -51 56 -85 64v20z" />
    <glyph glyph-name="Z" unicode="Z" horiz-adv-x="630" 
d="M66 466h-23l30 190h21c6 -12 28 -22 79 -22h409c-141 -198 -287 -404 -417 -606c46 -2 92 -4 138 -4c142 0 214 15 273 152h26l-29 -176h-533c140 203 279 414 419 610h-188c-98 0 -154 -22 -205 -144z" />
    <glyph glyph-name="bracketleft" unicode="[" horiz-adv-x="278" 
d="M65 -158v816h187v-16h-121v-784h119v-16h-185z" />
    <glyph glyph-name="backslash" unicode="\" horiz-adv-x="278" 
d="M302 -8h-44l-281 650h44z" />
    <glyph glyph-name="bracketright" unicode="]" horiz-adv-x="278" 
d="M213 658v-816h-187v16h121v784h-119v16h185z" />
    <glyph glyph-name="asciicircum" unicode="^" horiz-adv-x="600" 
d="M280 634h40l140 -278h-48l-112 225l-112 -225h-48z" />
    <glyph glyph-name="underscore" unicode="_" horiz-adv-x="500" 
d="M500 -125h-500v50h500v-50z" />
    <glyph glyph-name="quoteleft" unicode="&#x2018;" horiz-adv-x="222" 
d="M167 668v-16c-39 -22 -71 -60 -71 -86c0 -25 14 -28 29 -33c20 -7 45 -13 45 -48c0 -23 -13 -43 -51 -43c-47 0 -67 42 -67 90c0 64 56 114 115 136z" />
    <glyph glyph-name="a" unicode="a" horiz-adv-x="426" 
d="M258 203v81c0 69 -26 86 -68 86c-92 0 -54 -103 -113 -103c-17 0 -29 9 -29 27c0 37 90 100 167 100c67 0 113 -34 113 -120v-219c0 -23 14 -29 25 -29c15 0 25 6 35 15l10 -11c-14 -22 -48 -38 -78 -38c-31 0 -60 22 -62 59c-47 -43 -93 -59 -131 -59
c-57 0 -97 34 -97 78c0 69 57 89 174 119zM258 67v120l-40 -10c-75 -19 -114 -42 -114 -84c0 -37 21 -67 66 -67c32 0 61 20 88 41z" />
    <glyph glyph-name="b" unicode="b" horiz-adv-x="481" 
d="M128 676h15v-342c28 26 62 60 129 60c86 0 182 -58 182 -195c0 -119 -86 -207 -209 -207c-51 0 -87 16 -110 16c-22 0 -48 -16 -54 -16c-4 0 -8 2 -8 8v559c0 31 -8 35 -26 44c-16 7 -18 9 -18 13v11c0 8 5 12 15 16zM143 309v-185c0 -80 51 -112 106 -112
c77 0 125 56 125 166c0 116 -50 182 -128 182c-30 0 -75 -18 -103 -51z" />
    <glyph glyph-name="c" unicode="c" horiz-adv-x="389" 
d="M100 203c0 -113 74 -171 142 -171c63 0 105 51 113 51c4 0 7 -2 7 -5c0 -17 -75 -86 -155 -86c-78 0 -177 50 -177 192c0 136 113 210 212 210c56 0 106 -21 106 -57c0 -18 -16 -27 -30 -27c-42 0 -57 50 -111 50c-61 0 -107 -64 -107 -157z" />
    <glyph glyph-name="d" unicode="d" horiz-adv-x="519" 
d="M358 -8v55c-33 -27 -70 -55 -135 -55c-127 0 -191 100 -191 191c0 121 106 211 205 211c66 0 102 -26 117 -39v196c0 64 -3 72 -37 72c-22 0 -26 2 -26 9c0 5 6 8 21 13c27 9 91 31 100 31c7 0 12 -2 12 -11v-606c0 -19 7 -24 19 -24s23 6 28 6c4 0 5 -5 5 -9
c0 -7 -2 -8 -13 -12c-19 -7 -72 -19 -105 -28zM354 143v91c0 96 -30 140 -109 140c-88 0 -139 -74 -139 -179c0 -112 65 -179 134 -179c50 0 103 42 110 61c4 8 4 27 4 66z" />
    <glyph glyph-name="e" unicode="e" horiz-adv-x="407" 
d="M361 258h-256c-4 -15 -7 -32 -7 -59c0 -89 54 -167 147 -167c40 0 72 14 116 44l12 -16c-45 -36 -89 -68 -154 -68c-119 0 -191 102 -191 190c0 126 88 212 193 212c84 0 150 -69 150 -131c0 -4 -3 -5 -10 -5zM110 282h191c-4 54 -39 92 -90 92c-58 0 -90 -47 -101 -92z
" />
    <glyph glyph-name="f" unicode="f" horiz-adv-x="315" 
d="M35 0v16c53 0 65 14 65 90v246h-58c0 26 11 30 58 40c2 164 67 284 206 284c55 0 94 -20 94 -51c0 -16 -13 -27 -31 -27c-34 0 -65 48 -106 48c-49 0 -93 -42 -93 -198v-62h104c9 0 13 -2 13 -10c0 -5 -4 -15 -5 -19c-1 -3 -5 -5 -13 -5h-99v-246c0 -76 12 -90 78 -90
v-16h-213z" />
    <glyph glyph-name="g" unicode="g" horiz-adv-x="481" 
d="M380 246c0 -82 -76 -139 -152 -139c-22 0 -34 2 -45 5c-26 -18 -59 -31 -59 -54c0 -28 31 -34 206 -42c72 -3 102 -34 102 -87c0 -130 -127 -165 -239 -165c-76 0 -175 18 -175 84c0 47 34 71 114 111c-41 20 -69 54 -69 83c0 32 48 47 93 81c-56 24 -93 67 -93 131
c0 87 65 140 157 140c63 0 117 -24 136 -24c21 0 50 12 78 12c23 0 34 -6 34 -21c0 -17 -12 -27 -32 -27s-31 12 -47 12c-14 0 -22 -8 -22 -21c0 -27 13 -32 13 -79zM88 -140c0 -50 62 -76 136 -76c81 0 158 36 158 109c0 42 -35 59 -212 59c-39 -15 -82 -45 -82 -92z
M316 225c0 84 -35 149 -103 149c-53 0 -86 -47 -86 -115c0 -74 35 -132 103 -132c53 0 86 34 86 98z" />
    <glyph glyph-name="h" unicode="h" horiz-adv-x="519" 
d="M28 0v16c46 0 58 14 58 90v388c0 106 -8 113 -46 124v16l67 31c13 6 22 11 32 11c11 0 17 -8 17 -17v-314c23 24 68 49 126 49c67 0 145 -22 145 -139v-149c0 -76 12 -90 59 -90v-16h-180v16c39 0 51 14 51 90v132c0 81 -35 122 -104 122c-38 0 -70 -17 -97 -53v-201
c0 -76 12 -90 69 -90v-16h-197z" />
    <glyph glyph-name="i" unicode="i" horiz-adv-x="259" 
d="M36 0v16c46 0 58 14 58 88v137c0 69 -4 83 -33 87c-16 2 -21 5 -21 13c0 9 5 13 14 17c18 6 88 36 99 36c9 0 12 -5 12 -11c0 -10 -1 -42 -1 -75v-204c0 -74 12 -88 59 -88v-16h-187zM86 599c0 24 19 43 43 43s43 -19 43 -43s-19 -43 -43 -43s-43 19 -43 43z" />
    <glyph glyph-name="j" unicode="j" horiz-adv-x="278" 
d="M35 -236v16c51 25 84 56 84 130v294c0 90 -20 114 -70 122c-6 1 -13 3 -13 11c0 4 5 7 12 10c74 30 112 47 121 47c11 0 20 -6 20 -30v-395c0 -105 -68 -186 -154 -205zM126 642c24 0 43 -19 43 -43s-19 -43 -43 -43s-43 19 -43 43s19 43 43 43z" />
    <glyph glyph-name="k" unicode="k" horiz-adv-x="537" 
d="M93 106v433c0 52 -4 57 -39 74c-7 3 -14 8 -14 15c0 5 4 10 13 13c17 6 89 35 99 35c7 0 11 -5 11 -19v-447c32 13 155 96 155 135c0 16 -14 22 -43 25v16h169v-16c-50 -8 -81 -33 -196 -133l158 -165c21 -22 53 -50 85 -56v-16h-206v16c44 1 51 10 51 20
c0 23 -103 128 -142 161l-31 -21v-70c0 -76 12 -90 62 -90v-16h-190v16c46 0 58 14 58 90z" />
    <glyph glyph-name="l" unicode="l" horiz-adv-x="259" 
d="M28 0v16c46 0 58 14 58 90v433c0 52 -4 57 -39 74c-7 4 -14 6 -14 15c0 5 4 10 13 13c17 6 89 35 99 35c7 0 11 -5 11 -19v-551c0 -76 12 -90 62 -90v-16h-190z" />
    <glyph glyph-name="m" unicode="m" horiz-adv-x="796" 
d="M25 0v16c49 0 61 14 61 90v173c0 47 -11 55 -31 59c-15 3 -18 4 -18 9c0 4 9 8 20 14c34 18 69 39 82 39c8 0 15 -5 15 -15v-64c50 45 87 73 149 73c50 0 92 -19 116 -70c34 23 75 70 145 70c81 0 134 -49 134 -138v-150c0 -76 12 -90 59 -90v-16h-188v16
c47 0 59 14 59 90v140c0 79 -28 108 -86 108c-43 0 -80 -18 -115 -48v-200c0 -76 12 -90 66 -90v-16h-204v16c56 0 68 14 68 90v143c0 81 -29 111 -85 111c-42 0 -80 -27 -116 -66v-188c0 -76 12 -90 62 -90v-16h-193z" />
    <glyph glyph-name="n" unicode="n" horiz-adv-x="519" 
d="M25 0v16c54 0 66 14 66 90v187c0 23 -5 27 -24 39c-8 5 -12 7 -12 13c0 8 6 11 17 17c34 21 61 38 74 38c5 0 11 -3 11 -12v-41c27 18 68 47 133 47c59 0 137 -22 137 -139v-149c0 -76 12 -90 59 -90v-16h-188v16c47 0 59 14 59 90v132c0 81 -35 122 -104 122
c-41 0 -76 -31 -92 -50v-204c0 -76 12 -90 61 -90v-16h-197z" />
    <glyph glyph-name="o" unicode="o" horiz-adv-x="463" 
d="M231 394c103 0 203 -74 203 -201s-100 -201 -203 -201s-203 74 -203 201s100 201 203 201zM231 374c-97 0 -123 -86 -123 -181s26 -181 123 -181s123 86 123 181s-26 181 -123 181z" />
    <glyph glyph-name="p" unicode="p" horiz-adv-x="500" 
d="M161 14v-181c0 -37 6 -42 76 -53v-16h-206v16c55 12 60 18 60 53v455c0 61 -41 48 -41 65c0 9 16 13 41 23c12 5 47 24 62 24c4 0 8 -3 8 -11v-51c33 27 68 56 134 56s173 -39 173 -194c0 -107 -61 -208 -208 -208c-32 0 -63 5 -99 22zM161 316v-130
c0 -122 17 -174 109 -174c93 0 128 79 128 161c0 135 -71 191 -137 191c-39 0 -72 -24 -100 -48z" />
    <glyph glyph-name="q" unicode="q" horiz-adv-x="519" 
d="M426 394l14 -2c-1 -19 -2 -38 -2 -73v-450c0 -75 12 -89 57 -89v-16h-199v16c60 0 72 14 72 89v150c-42 -20 -93 -27 -130 -27c-120 0 -208 89 -208 191c0 98 70 211 214 211c82 0 110 -20 149 -20c17 0 24 6 33 20zM368 86v179c0 68 -52 109 -134 109
c-72 0 -130 -80 -130 -167c0 -115 100 -185 170 -185c32 0 52 8 73 19c17 10 21 16 21 45z" />
    <glyph glyph-name="r" unicode="r" horiz-adv-x="370" 
d="M42 0v16c48 0 60 14 60 90v178c0 24 -5 34 -24 43c-14 7 -19 8 -19 14c0 8 8 11 46 28c44 19 46 31 57 31c7 0 10 -4 10 -11v-33c0 -8 4 -12 10 -12c9 0 59 50 110 50c27 0 44 -12 44 -35c0 -18 -11 -34 -46 -34c-13 0 -37 3 -55 3c-36 0 -63 -18 -63 -72v-164
c0 -62 11 -74 62 -76v-16h-192z" />
    <glyph glyph-name="s" unicode="s" horiz-adv-x="333" 
d="M265 373l2 -66c0 -4 -2 -8 -6 -8c-5 0 -8 3 -10 6c-19 35 -46 69 -85 69c-30 0 -54 -20 -54 -58c0 -99 182 -81 182 -204c0 -47 -47 -120 -141 -120c-57 0 -115 33 -115 52c0 6 10 45 10 54c0 7 5 10 11 10c14 0 21 -96 100 -96c31 0 69 22 69 71c0 100 -182 94 -182 204
c0 53 47 107 135 107c23 0 56 -6 77 -13c4 -1 7 -4 7 -8z" />
    <glyph glyph-name="t" unicode="t" horiz-adv-x="296" 
d="M271 386v-34h-70c-41 0 -55 -10 -55 -72v-193c0 -44 27 -61 64 -61c28 0 51 5 70 8v-20c-28 -10 -56 -22 -101 -22c-83 0 -103 52 -103 100v222c0 33 -2 36 -12 40c-8 3 -32 4 -32 14c0 7 9 14 17 22c67 68 76 82 86 82c6 0 11 -3 11 -16v-70h125z" />
    <glyph glyph-name="u" unicode="u" horiz-adv-x="519" 
d="M30 386l128 8v-266c0 -70 38 -102 88 -102c47 0 101 36 110 65v163c0 96 -10 107 -64 116v16l134 8v-304c0 -30 8 -47 25 -47c16 0 27 5 37 8v-23l-126 -32v61c-31 -29 -70 -65 -152 -65c-105 0 -122 64 -122 134v99c0 125 -9 136 -58 145v16z" />
    <glyph glyph-name="v" unicode="v" horiz-adv-x="463" 
d="M28 386h166v-16c-34 -1 -46 -10 -46 -32c0 -26 71 -166 102 -258c24 60 90 228 90 260c0 22 -25 28 -46 30v16h120v-16c-24 -3 -33 -10 -73 -116l-99 -262h-22l-134 318c-21 52 -26 56 -58 60v16z" />
    <glyph glyph-name="w" unicode="w" horiz-adv-x="722" 
d="M34 386h174v-16c-38 -3 -48 -14 -48 -35c0 -33 73 -206 90 -246c20 36 97 182 97 199c0 8 -3 14 -5 20l-12 26c-9 22 -32 34 -48 36v16h183v-16c-21 -4 -52 -9 -52 -38c0 -30 67 -191 94 -252c14 32 95 210 95 247c0 24 -10 34 -42 43v16h134v-16
c-37 -14 -48 -32 -91 -130l-109 -248h-24l-102 277l-130 -277h-22l-134 332c-14 34 -32 44 -48 46v16z" />
    <glyph glyph-name="x" unicode="x" horiz-adv-x="463" 
d="M435 16v-16h-180v16c43 0 52 11 52 21c0 18 -57 78 -87 120c-38 -46 -87 -104 -87 -118c0 -15 13 -22 41 -23v-16h-146v16c35 6 54 12 87 54l89 113l-106 146c-23 32 -41 41 -63 41v16h180v-16c-39 0 -46 -6 -46 -18c0 -20 48 -73 76 -114c29 35 77 91 77 109
c0 15 -11 23 -40 23v16h135v-16c-21 -2 -35 -10 -77 -60l-81 -96l104 -139c25 -33 45 -49 72 -59z" />
    <glyph glyph-name="y" unicode="y" 
d="M18 386h181v-16c-37 -1 -49 -12 -49 -36c0 -35 68 -162 94 -263h2c30 97 80 231 80 260c0 28 -19 34 -44 39v16h124v-16c-24 -10 -33 -20 -57 -84l-146 -394c-23 -63 -54 -128 -107 -128c-27 0 -40 18 -40 35c0 25 18 35 69 46c28 6 35 8 56 66c12 33 24 65 24 75
c0 6 -3 12 -7 21l-127 311c-13 31 -23 44 -53 52v16z" />
    <glyph glyph-name="z" unicode="z" horiz-adv-x="463" 
d="M140 24h132c84 0 111 40 145 98h16l-30 -122h-359l2 13l270 349h-115c-67 0 -109 -38 -138 -92h-18l34 116h331z" />
    <glyph glyph-name="braceleft" unicode="{" horiz-adv-x="278" 
d="M104 -40v176c0 64 -14 95 -72 113c58 18 72 49 72 113v176c0 118 59 138 142 138v-11c-58 -15 -76 -54 -76 -122v-167c0 -70 -12 -109 -85 -126v-2c73 -17 85 -56 85 -126v-167c0 -68 18 -107 76 -122v-11c-83 0 -142 20 -142 138z" />
    <glyph glyph-name="bar" unicode="|" horiz-adv-x="222" 
d="M89 0v676h44v-676h-44z" />
    <glyph glyph-name="braceright" unicode="}" horiz-adv-x="278" 
d="M174 538v-176c0 -64 14 -95 72 -113c-58 -18 -72 -49 -72 -113v-176c0 -118 -59 -138 -142 -138v11c58 15 76 54 76 122v167c0 70 12 109 85 126v2c-73 17 -85 56 -85 126v167c0 68 -18 107 -76 122v11c83 0 142 -20 142 -138z" />
    <glyph glyph-name="asciitilde" unicode="~" horiz-adv-x="600" 
d="M449 244l27 -32c-22 -32 -48 -66 -95 -66c-28 0 -53 12 -78 26c-24 13 -52 26 -87 26c-34 0 -52 -28 -65 -55l-27 32c17 32 44 66 95 66c26 0 56 -11 85 -24c28 -13 57 -28 78 -28c30 0 49 28 67 55z" />
    <glyph glyph-name="exclamdown" unicode="&#xa1;" horiz-adv-x="333" 
d="M181 254l9 -162c4 -67 22 -255 22 -296c0 -39 -14 -68 -46 -68c-33 0 -46 23 -46 61s6 78 10 122l34 343h17zM209 351c0 -24 -19 -43 -43 -43s-43 19 -43 43s19 43 43 43s43 -19 43 -43z" />
    <glyph glyph-name="cent" unicode="&#xa2;" 
d="M292 335l-96 -280c22 -15 47 -23 71 -23c63 0 105 51 113 51c4 0 7 -2 7 -5c0 -17 -75 -86 -155 -86c-18 0 -37 3 -55 9l-49 -141h-32l53 152c-52 26 -94 80 -94 172c0 136 113 210 212 210c5 0 10 0 13 -1l42 123h32l-43 -127c36 -8 62 -26 62 -52
c0 -18 -16 -27 -30 -27c-21 0 -35 12 -51 25zM171 75l95 277c-9 5 -20 8 -34 8c-61 0 -107 -64 -107 -157c0 -56 19 -99 46 -128z" />
    <glyph glyph-name="sterling" unicode="&#xa3;" 
d="M282 348v-34h-103c0 -95 -4 -139 -38 -232c14 1 24 2 35 2c50 0 110 -18 149 -18c57 0 71 24 87 52l12 -3c-5 -50 -36 -123 -117 -123c-35 0 -70 16 -99 33c-30 16 -54 31 -69 31c-9 0 -21 -15 -37 -31s-36 -33 -62 -33c-19 0 -24 14 -24 29c0 49 16 51 88 59
c5 23 9 46 9 78c0 53 -6 106 -14 156h-80v34h77c-3 26 -6 57 -6 94c0 124 65 200 160 200c87 0 123 -60 123 -96c0 -26 -14 -45 -43 -45c-20 0 -37 16 -37 40c0 19 8 21 8 36c0 25 -17 45 -48 45c-61 0 -89 -52 -89 -126c0 -61 8 -117 12 -148h106z" />
    <glyph glyph-name="fraction" unicode="&#x2044;" horiz-adv-x="167" 
d="M-118 -8h-49l452 650h49z" />
    <glyph glyph-name="yen" unicode="&#xa5;" 
d="M22 394h115l-82 156c-27 52 -39 56 -67 64v20h192v-20c-29 -3 -50 -3 -50 -30c0 -31 32 -85 116 -258c85 171 119 214 119 255c0 26 -15 30 -42 33v20h144v-20c-26 -3 -42 -3 -83 -80l-73 -140h111v-34h-128l-37 -70h165v-34h-165v-146c0 -85 11 -89 76 -90v-20h-226v20
c69 1 80 5 80 90v146h-165v34h165v8l-32 62h-133v34z" />
    <glyph glyph-name="florin" unicode="&#x192;" 
d="M361 388l-6 -34h-88l-35 -298c-13 -115 -64 -208 -174 -208c-33 0 -57 18 -57 41c0 19 15 29 32 29c30 0 46 -30 78 -30c28 0 43 24 58 160l33 306h-86l4 34h86l5 43c17 145 67 211 171 211c32 0 59 -14 59 -40c0 -20 -13 -31 -32 -31c-32 0 -45 31 -74 31
c-37 0 -44 -42 -50 -92l-14 -122h90z" />
    <glyph glyph-name="section" unicode="&#xa7;" horiz-adv-x="500" 
d="M107 523c0 61 50 119 138 119c89 0 131 -55 131 -95c0 -33 -25 -52 -49 -52s-43 12 -43 38c0 35 34 39 34 55c0 14 -29 34 -70 34c-67 0 -91 -43 -91 -76c0 -104 272 -198 272 -337c2 -77 -56 -117 -136 -119c39 -32 97 -81 97 -144c0 -58 -43 -128 -149 -128
c-75 0 -133 39 -133 97c0 34 27 51 51 51c23 0 41 -16 41 -39c0 -32 -31 -36 -31 -55c0 -26 41 -34 77 -34c49 0 94 31 94 76c0 115 -270 190 -270 338c0 50 28 90 62 106c26 12 49 12 76 12c-78 66 -101 107 -101 153zM303 110c50 0 82 28 82 70c0 62 -115 170 -196 170
c-45 0 -75 -29 -75 -71c0 -71 126 -169 189 -169z" />
    <glyph glyph-name="currency" unicode="&#xa4;" 
d="M27 280h33v21c0 15 0 32 2 49h-42l7 34h38c17 126 76 258 212 258c48 0 112 -21 145 -53l-5 -124h-18c-14 70 -44 157 -132 157c-59 0 -117 -75 -130 -238h218l-7 -34h-213c-1 -13 -1 -26 -1 -40v-30h203l-7 -34h-194c13 -141 69 -234 144 -234c61 0 106 47 129 141h20
l-8 -100c-30 -38 -95 -61 -143 -61c-141 0 -202 129 -215 254h-43z" />
    <glyph glyph-name="quotesingle" unicode="'" horiz-adv-x="222" 
d="M144 561l-17 -204c-1 -8 -1 -31 -17 -31c-15 0 -15 23 -16 31l-17 204c-2 25 -6 81 33 81c40 0 36 -56 34 -81z" />
    <glyph glyph-name="quotedblleft" unicode="&#x201c;" horiz-adv-x="407" 
d="M352 668v-16c-39 -22 -71 -60 -71 -86c0 -25 14 -28 29 -33c20 -7 45 -13 45 -48c0 -23 -13 -43 -51 -43c-47 0 -67 42 -67 90c0 64 56 114 115 136zM167 668v-16c-39 -22 -71 -60 -71 -86c0 -25 14 -28 29 -33c20 -7 45 -13 45 -48c0 -23 -13 -43 -51 -43
c-47 0 -67 42 -67 90c0 64 56 114 115 136z" />
    <glyph glyph-name="guillemotleft" unicode="&#xab;" horiz-adv-x="500" 
d="M84 193v2c12 10 96 77 148 137c6 7 12 10 18 10c4 0 7 -3 7 -8c0 -18 -99 -130 -99 -140s99 -123 99 -142c0 -6 -3 -8 -8 -8c-13 0 -76 78 -165 149zM243 193v2c12 10 96 77 148 137c6 7 12 10 18 10c4 0 7 -3 7 -8c0 -18 -99 -130 -99 -140s99 -123 99 -142
c0 -6 -3 -8 -8 -8c-13 0 -76 78 -165 149z" />
    <glyph glyph-name="guilsinglleft" unicode="&#x2039;" horiz-adv-x="333" 
d="M80 193v2c12 10 96 77 148 137c6 7 12 10 18 10c4 0 7 -3 7 -8c0 -18 -99 -130 -99 -140s99 -123 99 -142c0 -6 -3 -8 -8 -8c-13 0 -76 78 -165 149z" />
    <glyph glyph-name="guilsinglright" unicode="&#x203a;" horiz-adv-x="333" 
d="M253 193v-2c-12 -10 -96 -77 -148 -137c-6 -7 -12 -10 -18 -10c-4 0 -7 3 -7 8c0 18 99 130 99 140s-99 123 -99 142c0 6 3 8 8 8c13 0 76 -78 165 -149z" />
    <glyph glyph-name="fi" unicode="&#xfb01;" horiz-adv-x="537" 
d="M309 352h-156v-246c0 -76 12 -90 60 -90v-16h-194v16c52 0 64 14 64 90v246h-58c0 26 11 30 58 40c10 112 39 284 217 284c49 0 121 -15 121 -54c0 -21 -14 -33 -33 -33c-34 0 -64 57 -129 57c-62 0 -106 -49 -106 -171v-89h194c19 0 36 2 50 4c13 2 24 4 28 4
c8 0 13 -5 13 -15v-273c0 -76 12 -90 62 -90v-16h-199v16c55 0 67 14 67 90v190c0 53 -6 56 -59 56z" />
    <glyph glyph-name="fl" unicode="&#xfb02;" horiz-adv-x="537" 
d="M23 0v16c55 0 67 14 67 90v246h-58c0 26 11 30 58 40c13 163 75 284 239 284c30 0 58 -6 88 -6c11 0 23 0 33 2v-566c0 -76 17 -88 50 -90v-16h-192v16c60 0 72 14 72 90v246h-220v-246c0 -76 12 -90 53 -90v-16h-190zM380 386v197c-23 21 -67 63 -115 63
c-57 0 -105 -50 -105 -176v-84h220z" />
    <glyph glyph-name="endash" unicode="&#x2013;" horiz-adv-x="500" 
d="M0 173v40h500v-40h-500z" />
    <glyph glyph-name="dagger" unicode="&#x2020;" horiz-adv-x="500" 
d="M258 -182h-16c0 234 -10 342 -32 401c20 48 30 76 30 139v50c-91 -7 -109 -31 -143 -31c-28 0 -41 20 -41 36c0 25 17 38 41 38c44 0 50 -25 143 -27v51c0 58 -32 85 -32 125c0 25 16 42 43 42c25 0 41 -17 41 -42c0 -40 -32 -67 -32 -125v-51c93 2 99 27 143 27
c24 0 41 -13 41 -38c0 -16 -13 -36 -41 -36c-34 0 -52 24 -143 31v-50c0 -63 10 -91 30 -139c-22 -59 -32 -167 -32 -401z" />
    <glyph glyph-name="daggerdbl" unicode="&#x2021;" horiz-adv-x="500" 
d="M261 475v-51c93 2 99 27 143 27c24 0 41 -13 41 -38c0 -16 -13 -36 -41 -36c-34 0 -52 24 -143 31c1 -57 1 -106 26 -183c-14 -34 -23 -79 -26 -173c91 7 109 31 143 31c28 0 41 -20 41 -36c0 -25 -17 -38 -41 -38c-44 0 -50 25 -143 27v-51c0 -58 32 -85 32 -125
c0 -25 -16 -42 -43 -42s-43 17 -43 42c0 40 32 67 32 125v51c-93 -2 -99 -27 -143 -27c-24 0 -41 13 -41 38c0 16 13 36 41 36c34 0 52 -24 143 -31c-3 94 -12 139 -26 173c25 77 25 126 26 183c-91 -7 -109 -31 -143 -31c-28 0 -41 20 -41 36c0 25 17 38 41 38
c44 0 50 -25 143 -27v51c0 58 -32 85 -32 125c0 25 16 42 43 42s43 -17 43 -42c0 -40 -32 -67 -32 -125z" />
    <glyph glyph-name="periodcentered" unicode="&#xb7;" horiz-adv-x="222" 
d="M58 193c0 29 24 53 53 53s53 -24 53 -53s-24 -53 -53 -53s-53 24 -53 53z" />
    <glyph glyph-name="paragraph" unicode="&#xb6;" horiz-adv-x="600" 
d="M537 634v-24c-73 -2 -82 -12 -82 -70v-674c0 -60 13 -64 82 -70v-24h-140v832h-61v-832h-140v24c70 6 82 10 82 70v357c-137 0 -198 87 -198 213c0 139 59 198 209 198h248z" />
    <glyph glyph-name="bullet" unicode="&#x2022;" horiz-adv-x="500" 
d="M91 318c0 88 71 159 159 159s159 -71 159 -159s-71 -159 -159 -159s-159 71 -159 159z" />
    <glyph glyph-name="quotesinglbase" unicode="&#x201a;" horiz-adv-x="222" 
d="M55 -134v16c39 22 71 60 71 86c0 25 -14 28 -29 33c-20 7 -45 13 -45 48c0 23 13 43 51 43c47 0 67 -42 67 -90c0 -64 -56 -114 -115 -136z" />
    <glyph glyph-name="quotedblbase" unicode="&#x201e;" horiz-adv-x="407" 
d="M55 -134v16c39 22 71 60 71 86c0 25 -14 28 -29 33c-20 7 -45 13 -45 48c0 23 13 43 51 43c47 0 67 -42 67 -90c0 -64 -56 -114 -115 -136zM240 -134v16c39 22 71 60 71 86c0 25 -14 28 -29 33c-20 7 -45 13 -45 48c0 23 13 43 51 43c47 0 67 -42 67 -90
c0 -64 -56 -114 -115 -136z" />
    <glyph glyph-name="quotedblright" unicode="&#x201d;" horiz-adv-x="407" 
d="M55 432v16c39 22 71 60 71 86c0 25 -14 28 -29 33c-20 7 -45 13 -45 48c0 23 13 43 51 43c47 0 67 -42 67 -90c0 -64 -56 -114 -115 -136zM240 432v16c39 22 71 60 71 86c0 25 -14 28 -29 33c-20 7 -45 13 -45 48c0 23 13 43 51 43c47 0 67 -42 67 -90
c0 -64 -56 -114 -115 -136z" />
    <glyph glyph-name="guillemotright" unicode="&#xbb;" horiz-adv-x="500" 
d="M416 193v-2c-12 -10 -96 -77 -148 -137c-6 -7 -12 -10 -18 -10c-4 0 -7 3 -7 8c0 18 99 130 99 140s-99 123 -99 142c0 6 3 8 8 8c13 0 76 -78 165 -149zM257 193v-2c-12 -10 -96 -77 -148 -137c-6 -7 -12 -10 -18 -10c-4 0 -7 3 -7 8c0 18 99 130 99 140
s-99 123 -99 142c0 6 3 8 8 8c13 0 76 -78 165 -149z" />
    <glyph glyph-name="ellipsis" unicode="&#x2026;" horiz-adv-x="1000" 
d="M113 45c0 29 24 53 53 53s53 -24 53 -53s-24 -53 -53 -53s-53 24 -53 53zM781 45c0 29 24 53 53 53s53 -24 53 -53s-24 -53 -53 -53s-53 24 -53 53zM447 45c0 29 24 53 53 53s53 -24 53 -53s-24 -53 -53 -53s-53 24 -53 53z" />
    <glyph glyph-name="perthousand" unicode="&#x2030;" horiz-adv-x="1000" 
d="M554 676h32l-499 -684h-43l433 593l-2 2c-25 -10 -56 -21 -92 -21s-58 7 -71 11c2 -6 2 -14 2 -23c0 -82 -85 -227 -192 -227c-65 0 -116 45 -116 124c0 76 73 207 204 207c40 0 78 -17 98 -59c14 -8 44 -17 69 -17c44 0 112 12 177 94zM888 323c67 0 109 -36 109 -104
c0 -65 -72 -227 -197 -227c-62 0 -115 50 -115 124c0 76 73 207 203 207zM522 323c67 0 109 -36 109 -104c0 -65 -72 -227 -197 -227c-62 0 -115 50 -115 124c0 76 73 207 203 207zM904 297c-83 0 -171 -128 -171 -205c0 -53 32 -76 76 -76c92 0 164 143 164 204
c0 45 -26 77 -69 77zM538 299c-83 0 -171 -128 -171 -205c0 -53 32 -76 76 -76c92 0 164 143 164 204c0 45 -26 77 -69 77zM222 634c-80 0 -168 -129 -168 -206c0 -54 32 -77 73 -77c95 0 163 142 163 203c0 11 -2 25 -5 32c-14 8 -45 34 -52 46c-4 1 -8 2 -11 2z" />
    <glyph glyph-name="questiondown" unicode="&#xbf;" horiz-adv-x="463" 
d="M319 250l-2 -250c-15 1 -29 1 -48 1c-100 0 -125 -21 -125 -66c0 -94 92 -123 145 -141c27 -9 38 -18 38 -37c0 -20 -14 -29 -35 -29c-77 0 -172 54 -172 205c0 75 33 136 99 141c57 4 72 7 74 36c3 24 6 81 7 140h19zM352 351c0 -24 -19 -43 -43 -43s-43 19 -43 43
s19 43 43 43s43 -19 43 -43z" />
    <glyph glyph-name="grave" unicode="`" horiz-adv-x="259" 
d="M188 444h-31l-112 94c-27 22 -43 34 -43 49c0 16 13 25 33 25c22 0 31 -9 49 -32z" />
    <glyph glyph-name="acute" unicode="&#xb4;" horiz-adv-x="259" 
d="M83 444h-31l104 136c18 23 27 32 49 32c20 0 33 -9 33 -25c0 -15 -16 -27 -43 -49z" />
    <glyph glyph-name="circumflex" unicode="&#x2c6;" horiz-adv-x="259" 
d="M100 612h54l108 -168h-28l-107 107l-107 -107h-28z" />
    <glyph glyph-name="tilde" unicode="&#x2dc;" horiz-adv-x="259" 
d="M244 580h20c-1 -25 -4 -94 -84 -94c-22 0 -46 7 -64 13c-22 7 -40 13 -58 13c-36 0 -40 -19 -44 -38h-20c3 56 27 90 80 90c19 0 39 -6 54 -11c18 -6 42 -11 72 -11c24 0 37 17 44 38z" />
    <glyph glyph-name="macron" unicode="&#xaf;" horiz-adv-x="259" 
d="M-4 486v54h266v-54h-266z" />
    <glyph glyph-name="breve" unicode="&#x2d8;" horiz-adv-x="259" 
d="M-6 596h20c8 -28 18 -72 107 -72c97 0 110 35 123 70h20c0 -37 -23 -134 -141 -134c-52 0 -126 34 -129 136z" />
    <glyph glyph-name="dotaccent" unicode="&#x2d9;" horiz-adv-x="259" 
d="M82 519c0 26 21 47 47 47s47 -21 47 -47s-21 -47 -47 -47s-47 21 -47 47z" />
    <glyph glyph-name="dieresis" unicode="&#xa8;" horiz-adv-x="259" 
d="M-6 519c0 26 21 47 47 47s47 -21 47 -47s-21 -47 -47 -47s-47 21 -47 47zM172 519c0 26 21 47 47 47s47 -21 47 -47s-21 -47 -47 -47s-47 21 -47 47z" />
    <glyph glyph-name="ring" unicode="&#x2da;" horiz-adv-x="259" 
d="M37 526c0 51 41 92 92 92s92 -41 92 -92s-41 -92 -92 -92s-92 41 -92 92zM65 526c0 -35 29 -64 64 -64s64 29 64 64s-29 64 -64 64s-64 -29 -64 -64z" />
    <glyph glyph-name="cedilla" unicode="&#xb8;" horiz-adv-x="259" 
d="M76 -8l24 2l-12 -52c54 -6 100 -14 100 -66c0 -34 -34 -66 -99 -66c-44 0 -79 10 -111 22l15 27c17 -9 49 -25 84 -25c27 0 55 10 55 38c0 25 -12 42 -58 42c-9 0 -16 -1 -23 -3z" />
    <glyph glyph-name="hungarumlaut" unicode="&#x2dd;" horiz-adv-x="259" 
d="M7 444h-31l104 136c18 23 27 32 49 32c20 0 33 -9 33 -25c0 -15 -16 -27 -43 -49zM147 444h-31l104 136c18 23 27 32 49 32c20 0 33 -9 33 -25c0 -15 -16 -27 -43 -49z" />
    <glyph glyph-name="ogonek" unicode="&#x2db;" horiz-adv-x="259" 
d="M258 20v-10c-56 -21 -169 -61 -169 -132c0 -30 31 -44 71 -44c34 0 80 22 102 40l10 -24c-34 -20 -62 -40 -130 -40c-66 0 -109 13 -109 70c0 88 153 124 225 140z" />
    <glyph glyph-name="caron" unicode="&#x2c7;" horiz-adv-x="259" 
d="M156 444h-54l-108 168h28l107 -109l107 109h28z" />
    <glyph glyph-name="emdash" unicode="&#x2014;" horiz-adv-x="1000" 
d="M0 173v40h1000v-40h-1000z" />
    <glyph glyph-name="AE" unicode="&#xc6;" horiz-adv-x="907" 
d="M367 0v20c68 11 83 21 83 90v188h-174c-52 -76 -116 -193 -116 -227c0 -29 30 -43 72 -51v-20h-212v20c65 12 73 22 131 121l205 349c31 52 41 80 41 91c0 23 -13 33 -109 33v20h524l21 -114h-16c-46 57 -74 90 -168 90h-54c-50 0 -59 -5 -59 -40v-218h71
c86 0 94 13 109 87h22v-218h-22c-11 78 -28 97 -100 97h-80v-252c0 -34 15 -42 64 -42h100c95 0 114 18 178 125h19c-10 -26 -26 -111 -34 -149h-496zM287 322h163v272h-2z" />
    <glyph glyph-name="ordfeminine" unicode="&#xaa;" horiz-adv-x="256" 
d="M156 530v53c0 29 -17 39 -44 39c-60 0 -35 -56 -73 -56c-13 0 -19 6 -19 16c0 23 58 60 108 60c45 0 74 -20 74 -66v-137c0 -13 9 -19 16 -19c10 0 16 5 24 11l5 -7c-9 -13 -31 -24 -50 -24c-20 0 -39 14 -41 36c-30 -25 -60 -36 -85 -36c-37 0 -63 22 -63 48
c0 43 37 55 113 73zM156 456v58l-26 -6c-48 -11 -74 -25 -74 -46c0 -15 14 -34 43 -34c21 0 40 13 57 28z" />
    <glyph glyph-name="Lslash" unicode="&#x141;" horiz-adv-x="630" 
d="M10 238v40l119 48v198c0 76 -12 90 -83 90v20h267v-20c-86 0 -98 -14 -98 -90v-163l211 85v-40l-211 -85v-211c0 -77 7 -86 65 -86h78c83 0 171 24 229 130h23l-32 -160c-34 2 -68 4 -101 5s-66 1 -97 1h-350v20c87 0 99 14 99 90v176z" />
    <glyph glyph-name="Oslash" unicode="&#xd8;" horiz-adv-x="741" 
d="M548 743h40l-63 -134c109 -50 176 -158 176 -292c0 -189 -133 -325 -331 -325c-46 0 -88 8 -126 21l-67 -142h-40l74 156c-107 52 -172 158 -172 290c0 189 133 325 331 325c44 0 84 -6 121 -19zM511 580l-255 -543c32 -16 70 -25 114 -25c164 0 239 116 239 305
c0 123 -32 215 -98 263zM225 57l255 542c-30 15 -67 23 -110 23c-164 0 -239 -116 -239 -305c0 -119 30 -210 94 -260z" />
    <glyph glyph-name="OE" unicode="&#x152;" horiz-adv-x="1000" 
d="M614 318v-252c0 -34 15 -42 64 -42h112c95 0 114 18 178 125h19c-10 -26 -26 -111 -34 -149h-465c-25 0 -48 -2 -70 -4c-21 -2 -43 -4 -67 -4c-213 0 -313 164 -313 313c0 197 124 337 330 337c30 0 54 -2 80 -4c25 -2 52 -4 84 -4h370l21 -114h-16
c-46 57 -74 90 -168 90h-66c-50 0 -59 -5 -59 -40v-218h83c86 0 94 13 109 87h22v-218h-22c-11 78 -28 97 -100 97h-92zM528 143v348c0 91 -53 131 -161 131c-180 0 -237 -147 -237 -308c0 -147 27 -302 237 -302c108 0 161 40 161 131z" />
    <glyph glyph-name="ordmasculine" unicode="&#xba;" horiz-adv-x="278" 
d="M8 521c0 77 65 121 132 121c66 0 131 -44 131 -121s-65 -121 -131 -121c-67 0 -132 44 -132 121zM60 521c0 -50 16 -101 80 -101c63 0 79 51 79 101s-16 101 -79 101c-64 0 -80 -51 -80 -101z" />
    <glyph glyph-name="ae" unicode="&#xe6;" horiz-adv-x="593" 
d="M535 51l10 -14c-20 -18 -65 -45 -133 -45c-79 0 -111 33 -138 60c-40 -32 -89 -60 -144 -60c-60 0 -86 41 -86 77c0 45 41 80 163 122l51 18v101c0 36 -26 64 -60 64c-80 0 -55 -95 -110 -95c-15 0 -23 9 -23 22c0 40 72 93 143 93c53 0 86 -24 106 -39
c21 15 49 39 108 39c94 0 127 -80 127 -99c0 -5 -4 -7 -15 -11c-61 -21 -136 -39 -206 -64v-57c0 -79 24 -137 114 -137c44 0 73 14 93 25zM258 86v92c-75 -11 -144 -42 -144 -93c0 -31 24 -59 60 -59c37 0 61 27 84 60zM328 277v-37l77 23c66 20 74 27 74 50
c0 34 -20 61 -72 61c-50 0 -79 -35 -79 -97z" />
    <glyph glyph-name="dotlessi" unicode="&#x131;" horiz-adv-x="259" 
d="M36 0v16c46 0 58 14 58 88v137c0 69 -4 83 -33 87c-16 2 -21 5 -21 13c0 9 5 13 14 17c18 6 88 36 99 36c9 0 12 -5 12 -11c0 -10 -1 -42 -1 -75v-204c0 -74 12 -88 59 -88v-16h-187z" />
    <glyph glyph-name="lslash" unicode="&#x142;" horiz-adv-x="259" 
d="M156 368v-262c0 -76 12 -90 62 -90v-16h-190v16c46 0 58 14 58 90v226l-103 -52v34l103 52v173c0 52 -4 57 -39 74c-7 4 -14 6 -14 15c0 5 4 10 13 13c17 6 89 35 99 35c7 0 11 -5 11 -19v-255l103 53v-34z" />
    <glyph glyph-name="oslash" unicode="&#xf8;" horiz-adv-x="463" 
d="M157 5l-46 -90h-34l52 103c-58 31 -101 92 -101 175c0 127 100 201 203 201c27 0 54 -5 79 -15l45 89h34l-51 -103c56 -33 96 -92 96 -172c0 -127 -100 -201 -203 -201c-25 0 -50 4 -74 13zM145 50l153 304c-18 13 -40 20 -67 20c-97 0 -123 -86 -123 -181
c0 -56 9 -109 37 -143zM321 331l-152 -302c16 -11 36 -17 62 -17c97 0 123 86 123 181c0 54 -8 105 -33 138z" />
    <glyph glyph-name="oe" unicode="&#x153;" horiz-adv-x="685" 
d="M650 231h-246c-2 -18 -2 -40 -2 -59c1 -92 46 -146 121 -146c55 0 89 25 118 50l8 -11c-26 -33 -76 -73 -149 -73c-85 0 -115 52 -127 52c-11 0 -54 -52 -146 -52c-115 0 -195 90 -195 198c0 112 78 204 207 204c68 0 121 -44 135 -44c13 0 65 44 126 44
c123 0 150 -90 150 -163zM342 195c0 117 -26 179 -109 179c-65 0 -121 -64 -121 -172c0 -120 51 -190 121 -190c83 0 109 88 109 183zM407 255h183c0 75 -17 119 -87 119c-64 0 -95 -45 -96 -119z" />
    <glyph glyph-name="germandbls" unicode="&#xdf;" horiz-adv-x="500" 
d="M164 0h-136v16c58 0 70 14 70 90v395c0 102 42 175 154 175c97 0 170 -62 170 -147c0 -53 -32 -125 -140 -155v-2c84 -15 181 -55 181 -188c0 -98 -61 -192 -171 -192c-23 0 -48 9 -61 18l11 34c14 -16 35 -28 54 -28c68 -2 93 59 93 153c0 105 -36 187 -117 187
c-8 0 -16 -1 -24 -2v37c5 -1 9 -1 14 -1c32 0 94 27 94 124c0 86 -33 142 -101 142c-43 0 -91 -28 -91 -106v-550z" />
    <glyph glyph-name="oldcurrency" 
d="M383 511l33 -33l-43 -43c26 -33 41 -74 41 -118c0 -45 -15 -85 -41 -118l43 -43l-33 -33l-43 43c-33 -26 -74 -41 -118 -41c-45 0 -85 15 -118 41l-43 -43l-33 33l43 43c-26 33 -41 74 -41 118c0 45 15 85 41 118l-43 43l33 33l43 -43c33 26 74 41 118 41
c46 0 87 -16 118 -41zM222 465c-82 0 -142 -66 -142 -148s60 -148 142 -148s142 66 142 148s-60 148 -142 148z" />
    <glyph glyph-name="divide" unicode="&#xf7;" horiz-adv-x="600" 
d="M493 171h-386v44h386v-44zM254 35c0 25 21 46 46 46s46 -21 46 -46s-21 -46 -46 -46s-46 21 -46 46zM254 351c0 25 21 46 46 46s46 -21 46 -46s-21 -46 -46 -46s-46 21 -46 46z" />
    <glyph glyph-name="threequarters" unicode="&#xbe;" horiz-adv-x="666" 
d="M554 140h-151v18l165 228h34v-212h44v-34h-44v-140h-48v140zM162 -8h-49l452 650h49zM54 587l-8 11c26 26 60 44 104 44c46 0 80 -23 80 -61c0 -35 -34 -73 -82 -102c46 -16 102 -37 102 -107c0 -45 -39 -120 -165 -120c-40 0 -74 12 -74 26c0 5 5 11 11 11
c22 0 37 -18 72 -17c38 -1 106 18 106 89c0 57 -58 87 -110 87c-11 0 -17 2 -17 5c0 4 6 6 27 18c10 6 80 43 80 91c0 38 -25 56 -59 56c-27 0 -46 -14 -67 -31zM554 174v163h-2l-118 -163h120z" />
    <glyph glyph-name="onequarter" unicode="&#xbc;" horiz-adv-x="666" 
d="M554 140h-151v18l165 228h34v-212h44v-34h-44v-140h-48v140zM162 -8h-49l452 650h49zM59 256v16c41 0 49 8 49 50v236c0 28 -6 34 -51 34v16c22 2 58 8 87 30c2 2 6 4 10 4s8 -2 8 -7v-313c0 -42 8 -50 49 -50v-16h-152zM554 174v163h-2l-118 -163h120z" />
    <glyph glyph-name="onesuperior" unicode="&#xb9;" horiz-adv-x="266" 
d="M59 256v16c41 0 49 8 49 50v236c0 28 -6 34 -51 34v16c22 2 58 8 87 30c2 2 6 4 10 4s8 -2 8 -7v-313c0 -42 8 -50 49 -50v-16h-152z" />
    <glyph glyph-name="multiply" unicode="&#xd7;" horiz-adv-x="600" 
d="M269 193l-162 161l31 32l162 -162l162 162l31 -32l-162 -161l162 -161l-31 -32l-162 162l-162 -162l-31 32z" />
    <glyph glyph-name="registered" unicode="&#xae;" horiz-adv-x="800" 
d="M400 642c177 0 317 -145 317 -325s-140 -325 -317 -325s-317 145 -317 325s140 325 317 325zM400 602c-148 0 -269 -136 -269 -285s121 -285 269 -285s269 136 269 285s-121 285 -269 285zM249 478v16h163c55 0 109 -26 109 -85c0 -50 -32 -85 -75 -99l54 -75
c26 -34 56 -68 75 -80v-8h-56c-32 0 -54 60 -118 154h-50v-91c0 -43 -2 -41 46 -47v-16h-148v16c48 6 46 4 46 47v221c0 44 2 42 -46 47zM351 478v-161h45c46 0 69 34 69 88c0 55 -34 73 -72 73h-42z" />
    <glyph glyph-name="Thorn" unicode="&#xde;" horiz-adv-x="574" 
d="M123 110v414c0 76 -12 90 -78 90v20h254v-20c-78 0 -90 -14 -90 -90v-20h100c103 0 234 -38 234 -170c0 -149 -141 -195 -298 -195v24c147 0 212 59 212 166c0 119 -101 151 -168 151s-80 -14 -80 -90v-280c0 -76 12 -90 76 -90v-20h-240v20c66 0 78 14 78 90z" />
    <glyph glyph-name="brokenbar" unicode="&#xa6;" horiz-adv-x="222" 
d="M89 0v253h44v-253h-44zM89 423v253h44v-253h-44z" />
    <glyph glyph-name="Eth" unicode="&#xd0;" horiz-adv-x="759" 
d="M125 110v204h-99v34h99v176c0 76 -12 90 -72 90v20h261c155 0 405 -82 405 -328c0 -198 -169 -306 -341 -306h-348v20c83 0 95 14 95 90zM211 314v-218c0 -48 21 -76 120 -76c176 0 288 106 288 284c0 191 -122 310 -312 310c-75 0 -96 -13 -96 -90v-176h225v-34h-225z
" />
    <glyph glyph-name="onehalf" unicode="&#xbd;" horiz-adv-x="666" 
d="M132 -8h-49l452 650h49zM626 0h-210v18c49 47 176 189 176 265c0 43 -33 69 -72 69c-42 0 -71 -19 -88 -43l-11 9c23 35 69 68 119 68c69 0 100 -45 100 -88c0 -47 -28 -106 -157 -235c-9 -9 -20 -17 -20 -20c0 -2 4 -3 8 -3h105c27 0 40 5 49 13c8 7 11 11 15 11
s7 -3 7 -7c0 -3 -14 -37 -21 -57zM59 256v16c41 0 49 8 49 50v236c0 28 -6 34 -51 34v16c22 2 58 8 87 30c2 2 6 4 10 4s8 -2 8 -7v-313c0 -42 8 -50 49 -50v-16h-152z" />
    <glyph glyph-name="minus" unicode="&#x2212;" horiz-adv-x="600" 
d="M493 171h-386v44h386v-44z" />
    <glyph glyph-name="ccedilla" unicode="&#xe7;" horiz-adv-x="389" 
d="M201 -7l-13 -51c54 -6 100 -14 100 -66c0 -34 -34 -66 -99 -66c-44 0 -79 10 -111 22l15 27c17 -9 49 -25 84 -25c27 0 55 10 55 38c0 25 -12 42 -58 42c-9 0 -16 -1 -23 -3l26 84c-71 11 -147 65 -147 189c0 136 113 210 212 210c56 0 106 -21 106 -57
c0 -18 -16 -27 -30 -27c-42 0 -57 50 -111 50c-61 0 -107 -64 -107 -157c0 -113 74 -171 142 -171c63 0 105 51 113 51c4 0 7 -2 7 -5c0 -17 -75 -86 -155 -86c-2 0 -4 0 -6 1z" />
    <glyph glyph-name="eth" unicode="&#xf0;" horiz-adv-x="463" 
d="M278 513l-114 -67l-18 22l115 68c-38 46 -90 73 -157 86l4 20c79 -7 143 -38 192 -83l112 66l18 -22l-109 -65c75 -80 112 -195 112 -306c0 -172 -113 -240 -206 -240c-100 0 -200 74 -200 199c0 135 113 203 206 203c39 0 78 -11 114 -37c-13 55 -35 110 -69 156z
M234 374c-71 0 -127 -58 -127 -180c0 -96 26 -182 119 -182c71 0 127 58 127 180c0 96 -26 182 -119 182z" />
    <glyph glyph-name="plusminus" unicode="&#xb1;" horiz-adv-x="600" 
d="M278 252v134h44v-134h171v-44h-171v-134h-44v134h-171v44h171zM107 0v44h386v-44h-386z" />
    <glyph glyph-name="Ccedilla" unicode="&#xc7;" horiz-adv-x="667" 
d="M600 440h-18c-22 70 -80 182 -226 182c-114 0 -224 -98 -224 -312c0 -176 103 -298 249 -298c103 0 180 71 219 165h20l-14 -100c-31 -38 -120 -85 -239 -85c-10 0 -19 0 -28 1l-12 -51c54 -6 100 -14 100 -66c0 -34 -34 -66 -99 -66c-44 0 -79 10 -111 22l15 27
c17 -9 49 -25 84 -25c27 0 55 10 55 38c0 25 -12 42 -58 42c-9 0 -16 -1 -23 -3l27 84c-187 21 -285 161 -285 306c0 190 128 341 334 341c70 0 189 -31 239 -78z" />
    <glyph glyph-name="thorn" unicode="&#xfe;" horiz-adv-x="500" 
d="M91 -167v697c0 61 -41 48 -41 65c0 9 15 13 38 22c15 6 51 25 63 25c7 0 10 -3 10 -12v-294c33 29 68 58 134 58s173 -39 173 -194c0 -107 -61 -208 -208 -208c-32 0 -63 5 -99 22v-181c0 -37 6 -42 76 -53v-16h-206v16c55 12 60 13 60 53zM161 316v-130
c0 -122 17 -174 109 -174c93 0 128 79 128 161c0 135 -71 191 -137 191c-39 0 -72 -24 -100 -48z" />
    <glyph glyph-name="copyright" unicode="&#xa9;" horiz-adv-x="800" 
d="M400 642c177 0 317 -145 317 -325s-140 -325 -317 -325s-317 145 -317 325s140 325 317 325zM400 602c-148 0 -269 -136 -269 -285s121 -285 269 -285s269 136 269 285s-121 285 -269 285zM543 238h15l-15 -65c-2 -10 -10 -13 -25 -18c-18 -6 -54 -15 -98 -15
c-107 0 -198 53 -198 186c0 78 63 180 203 180c49 0 73 -8 97 -16c14 -5 21 -10 21 -20v-66h-16c-3 41 -29 86 -105 86c-92 0 -135 -68 -136 -160c-1 -101 43 -174 143 -174c65 0 97 40 114 82z" />
    <glyph glyph-name="logicalnot" unicode="&#xac;" horiz-adv-x="600" 
d="M449 89v164h-342v44h386v-208h-44z" />
    <glyph glyph-name="twosuperior" unicode="&#xb2;" horiz-adv-x="266" 
d="M226 256h-210v18c49 47 176 189 176 265c0 43 -33 69 -72 69c-42 0 -71 -19 -88 -43l-11 9c23 35 69 68 119 68c69 0 100 -45 100 -88c0 -47 -28 -106 -157 -235c-9 -9 -20 -17 -20 -20c0 -2 4 -3 8 -3h105c27 0 40 5 49 13c8 7 11 11 15 11s7 -3 7 -7
c0 -3 -14 -37 -21 -57z" />
    <glyph glyph-name="threesuperior" unicode="&#xb3;" horiz-adv-x="266" 
d="M54 587l-8 11c26 26 60 44 104 44c46 0 80 -23 80 -61c0 -35 -34 -73 -82 -102c46 -16 102 -37 102 -107c0 -45 -39 -120 -165 -120c-40 0 -74 12 -74 26c0 5 5 11 11 11c22 0 37 -18 72 -17c38 -1 106 18 106 89c0 57 -58 87 -110 87c-11 0 -17 2 -17 5c0 4 6 6 27 18
c10 6 80 43 80 91c0 38 -25 56 -59 56c-27 0 -46 -14 -67 -31z" />
    <glyph glyph-name="trademark" unicode="&#x2122;" horiz-adv-x="990" 
d="M651 269l-137 279h-1v-202c0 -38 8 -53 46 -58v-16h-116v16c38 5 46 20 46 58v226c0 27 -36 46 -61 46v16h103l141 -282l147 282h88v-16c-38 -2 -51 -20 -51 -51v-228c0 -46 -2 -45 45 -51v-16h-146v16c46 6 45 5 45 51v212h-2l-139 -282h-8zM264 618v-279
c0 -46 -2 -45 45 -51v-16h-146v16c46 6 45 5 45 51v279h-46c-38 0 -53 -29 -62 -63h-16v79h304v-79h-16c-9 34 -25 63 -62 63h-46z" />
    <glyph glyph-name="degree" unicode="&#xb0;" horiz-adv-x="400" 
d="M200 356c-80 0 -144 63 -144 143s64 143 144 143s144 -63 144 -143s-64 -143 -144 -143zM200 390c59 0 106 50 106 109s-47 109 -106 109s-106 -50 -106 -109s47 -109 106 -109z" />
    <glyph glyph-name="mu" unicode="&#xb5;" horiz-adv-x="519" 
d="M30 386l128 8v-266c0 -70 38 -102 88 -102c47 0 101 36 110 65v163c0 96 -10 107 -64 116v16l134 8v-304c0 -30 8 -47 25 -47c16 0 27 5 37 8v-23l-126 -32v61c-31 -29 -70 -65 -152 -65c-21 0 -38 2 -52 8v-236h-128v16c48 9 58 20 58 145v300c0 125 -9 136 -58 145v16z
" />
    <glyph glyph-name="Aacute" unicode="&#xc1;" horiz-adv-x="722" 
d="M448 248h-223l-42 -114c-13 -34 -18 -48 -18 -67c0 -33 24 -45 65 -47v-20h-192v20c65 8 82 31 160 230l78 200c17 44 34 83 34 94c0 10 1 12 5 18l45 68c7 10 10 12 17 12c18 0 16 -29 45 -104l150 -385c46 -116 58 -127 120 -133v-20h-249v20c54 6 68 16 68 36
c0 17 -6 42 -16 68zM236 276h202l-86 221c-6 16 -11 33 -14 44h-2c-12 -40 -41 -111 -49 -132zM327 670h-31l104 136c18 23 27 32 49 32c20 0 33 -9 33 -25c0 -15 -16 -27 -43 -49z" />
    <glyph glyph-name="Acircumflex" unicode="&#xc2;" horiz-adv-x="722" 
d="M448 248h-223l-42 -114c-13 -34 -18 -48 -18 -67c0 -33 24 -45 65 -47v-20h-192v20c65 8 82 31 160 230l78 200c17 44 34 83 34 94c0 10 1 12 5 18l45 68c7 10 10 12 17 12c18 0 16 -29 45 -104l150 -385c46 -116 58 -127 120 -133v-20h-249v20c54 6 68 16 68 36
c0 17 -6 42 -16 68zM236 276h202l-86 221c-6 16 -11 33 -14 44h-2c-12 -40 -41 -111 -49 -132zM344 838h54l108 -168h-28l-107 107l-107 -107h-28z" />
    <glyph glyph-name="Adieresis" unicode="&#xc4;" horiz-adv-x="722" 
d="M448 248h-223l-42 -114c-13 -34 -18 -48 -18 -67c0 -33 24 -45 65 -47v-20h-192v20c65 8 82 31 160 230l78 200c17 44 34 83 34 94c0 10 1 12 5 18l45 68c7 10 10 12 17 12c18 0 16 -29 45 -104l150 -385c46 -116 58 -127 120 -133v-20h-249v20c54 6 68 16 68 36
c0 17 -6 42 -16 68zM236 276h202l-86 221c-6 16 -11 33 -14 44h-2c-12 -40 -41 -111 -49 -132zM238 745c0 26 21 47 47 47s47 -21 47 -47s-21 -47 -47 -47s-47 21 -47 47zM416 745c0 26 21 47 47 47s47 -21 47 -47s-21 -47 -47 -47s-47 21 -47 47z" />
    <glyph glyph-name="Agrave" unicode="&#xc0;" horiz-adv-x="722" 
d="M448 248h-223l-42 -114c-13 -34 -18 -48 -18 -67c0 -33 24 -45 65 -47v-20h-192v20c65 8 82 31 160 230l78 200c17 44 34 83 34 94c0 10 1 12 5 18l45 68c7 10 10 12 17 12c18 0 16 -29 45 -104l150 -385c46 -116 58 -127 120 -133v-20h-249v20c54 6 68 16 68 36
c0 17 -6 42 -16 68zM236 276h202l-86 221c-6 16 -11 33 -14 44h-2c-12 -40 -41 -111 -49 -132zM432 670h-31l-112 94c-27 22 -43 34 -43 49c0 16 13 25 33 25c22 0 31 -9 49 -32z" />
    <glyph glyph-name="Aring" unicode="&#xc5;" horiz-adv-x="722" 
d="M448 248h-223l-42 -114c-13 -34 -18 -48 -18 -67c0 -33 24 -45 65 -47v-20h-192v20c65 8 82 31 160 230l78 200c17 44 34 83 34 94c0 10 1 12 5 18l45 68c7 10 10 12 17 12c18 0 16 -29 45 -104l150 -385c46 -116 58 -127 120 -133v-20h-249v20c54 6 68 16 68 36
c0 17 -6 42 -16 68zM281 752c0 51 41 92 92 92s92 -41 92 -92s-41 -92 -92 -92s-92 41 -92 92zM236 276h202l-86 221c-6 16 -11 33 -14 44h-2c-12 -40 -41 -111 -49 -132zM309 752c0 -35 29 -64 64 -64s64 29 64 64s-29 64 -64 64s-64 -29 -64 -64z" />
    <glyph glyph-name="Atilde" unicode="&#xc3;" horiz-adv-x="722" 
d="M448 248h-223l-42 -114c-13 -34 -18 -48 -18 -67c0 -33 24 -45 65 -47v-20h-192v20c65 8 82 31 160 230l78 200c17 44 34 83 34 94c0 10 1 12 5 18l45 68c7 10 10 12 17 12c18 0 16 -29 45 -104l150 -385c46 -116 58 -127 120 -133v-20h-249v20c54 6 68 16 68 36
c0 17 -6 42 -16 68zM236 276h202l-86 221c-6 16 -11 33 -14 44h-2c-12 -40 -41 -111 -49 -132zM488 806h20c-1 -25 -4 -94 -84 -94c-22 0 -46 7 -64 13c-22 7 -40 13 -58 13c-36 0 -40 -19 -44 -38h-20c3 56 27 90 80 90c19 0 39 -6 54 -11c18 -6 42 -11 72 -11
c24 0 37 17 44 38z" />
    <glyph glyph-name="Eacute" unicode="&#xc9;" horiz-adv-x="630" 
d="M32 0v20c82 0 93 14 94 90c2 130 4 270 4 414c0 76 -12 90 -88 90v20h482l21 -114h-16c-46 57 -74 90 -168 90h-86c-50 0 -59 -5 -59 -40v-218h103c86 0 94 13 109 87h22v-218h-22c-11 78 -28 97 -100 97h-112v-252c0 -34 15 -42 64 -42h132c95 0 114 18 178 125h19
c-10 -26 -26 -111 -34 -149h-543zM281 670h-31l104 136c18 23 27 32 49 32c20 0 33 -9 33 -25c0 -15 -16 -27 -43 -49z" />
    <glyph glyph-name="Ecircumflex" unicode="&#xca;" horiz-adv-x="630" 
d="M32 0v20c82 0 93 14 94 90c2 130 4 270 4 414c0 76 -12 90 -88 90v20h482l21 -114h-16c-46 57 -74 90 -168 90h-86c-50 0 -59 -5 -59 -40v-218h103c86 0 94 13 109 87h22v-218h-22c-11 78 -28 97 -100 97h-112v-252c0 -34 15 -42 64 -42h132c95 0 114 18 178 125h19
c-10 -26 -26 -111 -34 -149h-543zM298 838h54l108 -168h-28l-107 107l-107 -107h-28z" />
    <glyph glyph-name="Edieresis" unicode="&#xcb;" horiz-adv-x="630" 
d="M32 0v20c82 0 93 14 94 90c2 130 4 270 4 414c0 76 -12 90 -88 90v20h482l21 -114h-16c-46 57 -74 90 -168 90h-86c-50 0 -59 -5 -59 -40v-218h103c86 0 94 13 109 87h22v-218h-22c-11 78 -28 97 -100 97h-112v-252c0 -34 15 -42 64 -42h132c95 0 114 18 178 125h19
c-10 -26 -26 -111 -34 -149h-543zM370 745c0 26 21 47 47 47s47 -21 47 -47s-21 -47 -47 -47s-47 21 -47 47zM192 745c0 26 21 47 47 47s47 -21 47 -47s-21 -47 -47 -47s-47 21 -47 47z" />
    <glyph glyph-name="Egrave" unicode="&#xc8;" horiz-adv-x="630" 
d="M32 0v20c82 0 93 14 94 90c2 130 4 270 4 414c0 76 -12 90 -88 90v20h482l21 -114h-16c-46 57 -74 90 -168 90h-86c-50 0 -59 -5 -59 -40v-218h103c86 0 94 13 109 87h22v-218h-22c-11 78 -28 97 -100 97h-112v-252c0 -34 15 -42 64 -42h132c95 0 114 18 178 125h19
c-10 -26 -26 -111 -34 -149h-543zM386 670h-31l-112 94c-27 22 -43 34 -43 49c0 16 13 25 33 25c22 0 31 -9 49 -32z" />
    <glyph glyph-name="Iacute" unicode="&#xcd;" horiz-adv-x="352" 
d="M206 524v-414c0 -76 12 -90 76 -90v-20h-240v20c66 0 78 14 78 90v414c0 76 -12 90 -78 90v20h254v-20c-78 0 -90 -14 -90 -90zM130 670h-31l104 136c18 23 27 32 49 32c20 0 33 -9 33 -25c0 -15 -16 -27 -43 -49z" />
    <glyph glyph-name="Icircumflex" unicode="&#xce;" horiz-adv-x="352" 
d="M206 524v-414c0 -76 12 -90 76 -90v-20h-240v20c66 0 78 14 78 90v414c0 76 -12 90 -78 90v20h254v-20c-78 0 -90 -14 -90 -90zM147 838h54l108 -168h-28l-107 107l-107 -107h-28z" />
    <glyph glyph-name="Idieresis" unicode="&#xcf;" horiz-adv-x="352" 
d="M206 524v-414c0 -76 12 -90 76 -90v-20h-240v20c66 0 78 14 78 90v414c0 76 -12 90 -78 90v20h254v-20c-78 0 -90 -14 -90 -90zM219 745c0 26 21 47 47 47s47 -21 47 -47s-21 -47 -47 -47s-47 21 -47 47zM41 745c0 26 21 47 47 47s47 -21 47 -47s-21 -47 -47 -47
s-47 21 -47 47z" />
    <glyph glyph-name="Igrave" unicode="&#xcc;" horiz-adv-x="352" 
d="M206 524v-414c0 -76 12 -90 76 -90v-20h-240v20c66 0 78 14 78 90v414c0 76 -12 90 -78 90v20h254v-20c-78 0 -90 -14 -90 -90zM235 670h-31l-112 94c-27 22 -43 34 -43 49c0 16 13 25 33 25c22 0 31 -9 49 -32z" />
    <glyph glyph-name="Ntilde" unicode="&#xd1;" horiz-adv-x="796" 
d="M45 0v20c64 7 86 17 86 129v373c0 74 -34 86 -102 92v20h158c78 -94 405 -444 453 -496c3 118 5 290 5 385c0 59 -18 82 -93 91v20h215v-20c-72 -9 -92 -33 -92 -91c0 -37 -8 -349 -13 -523h-18c-52 82 -325 342 -480 538h-3v-389c0 -112 14 -121 87 -129v-20h-203z
M525 806h20c-1 -25 -4 -94 -84 -94c-22 0 -46 7 -64 13c-22 7 -40 13 -58 13c-36 0 -40 -19 -44 -38h-20c3 56 27 90 80 90c19 0 39 -6 54 -11c18 -6 42 -11 72 -11c24 0 37 17 44 38z" />
    <glyph glyph-name="Oacute" unicode="&#xd3;" horiz-adv-x="741" 
d="M370 642c198 0 331 -136 331 -325s-133 -325 -331 -325s-331 136 -331 325s133 325 331 325zM370 622c-164 0 -239 -116 -239 -305s75 -305 239 -305s239 116 239 305s-75 305 -239 305zM324 670h-31l104 136c18 23 27 32 49 32c20 0 33 -9 33 -25c0 -15 -16 -27 -43 -49
z" />
    <glyph glyph-name="Ocircumflex" unicode="&#xd4;" horiz-adv-x="741" 
d="M370 642c198 0 331 -136 331 -325s-133 -325 -331 -325s-331 136 -331 325s133 325 331 325zM370 622c-164 0 -239 -116 -239 -305s75 -305 239 -305s239 116 239 305s-75 305 -239 305zM341 838h54l108 -168h-28l-107 107l-107 -107h-28z" />
    <glyph glyph-name="Odieresis" unicode="&#xd6;" horiz-adv-x="741" 
d="M370 642c198 0 331 -136 331 -325s-133 -325 -331 -325s-331 136 -331 325s133 325 331 325zM370 622c-164 0 -239 -116 -239 -305s75 -305 239 -305s239 116 239 305s-75 305 -239 305zM235 745c0 26 21 47 47 47s47 -21 47 -47s-21 -47 -47 -47s-47 21 -47 47zM413 745
c0 26 21 47 47 47s47 -21 47 -47s-21 -47 -47 -47s-47 21 -47 47z" />
    <glyph glyph-name="Ograve" unicode="&#xd2;" horiz-adv-x="741" 
d="M370 642c198 0 331 -136 331 -325s-133 -325 -331 -325s-331 136 -331 325s133 325 331 325zM370 622c-164 0 -239 -116 -239 -305s75 -305 239 -305s239 116 239 305s-75 305 -239 305zM429 670h-31l-112 94c-27 22 -43 34 -43 49c0 16 13 25 33 25c22 0 31 -9 49 -32z
" />
    <glyph glyph-name="Otilde" unicode="&#xd5;" horiz-adv-x="741" 
d="M370 642c198 0 331 -136 331 -325s-133 -325 -331 -325s-331 136 -331 325s133 325 331 325zM370 622c-164 0 -239 -116 -239 -305s75 -305 239 -305s239 116 239 305s-75 305 -239 305zM485 806h20c-1 -25 -4 -94 -84 -94c-22 0 -46 7 -64 13c-22 7 -40 13 -58 13
c-36 0 -40 -19 -44 -38h-20c3 56 27 90 80 90c19 0 39 -6 54 -11c18 -6 42 -11 72 -11c24 0 37 17 44 38z" />
    <glyph glyph-name="Scaron" unicode="&#x160;" horiz-adv-x="500" 
d="M414 612v-133h-16c-30 91 -81 143 -149 143c-49 0 -119 -35 -119 -108c0 -167 329 -136 329 -334c0 -81 -73 -188 -226 -188c-44 0 -145 12 -166 31c-20 18 -23 128 -26 161h15c15 -41 63 -172 185 -172c68 0 144 40 144 128c0 180 -329 126 -329 336
c0 81 60 166 209 166c50 0 102 -6 149 -30zM277 670h-54l-108 168h28l107 -109l107 109h28z" />
    <glyph glyph-name="Uacute" unicode="&#xda;" horiz-adv-x="741" 
d="M30 614v20h271v-20c-95 0 -107 -14 -107 -90v-316c0 -103 74 -176 200 -176c140 0 181 78 186 212l10 280c3 71 -33 90 -95 90v20h215v-20c-70 -8 -82 -28 -86 -154l-8 -234c-3 -116 -41 -234 -245 -234c-165 0 -257 70 -257 218v314c0 76 -12 90 -84 90zM324 670h-31
l104 136c18 23 27 32 49 32c20 0 33 -9 33 -25c0 -15 -16 -27 -43 -49z" />
    <glyph glyph-name="Ucircumflex" unicode="&#xdb;" horiz-adv-x="741" 
d="M30 614v20h271v-20c-95 0 -107 -14 -107 -90v-316c0 -103 74 -176 200 -176c140 0 181 78 186 212l10 280c3 71 -33 90 -95 90v20h215v-20c-70 -8 -82 -28 -86 -154l-8 -234c-3 -116 -41 -234 -245 -234c-165 0 -257 70 -257 218v314c0 76 -12 90 -84 90zM341 838h54
l108 -168h-28l-107 107l-107 -107h-28z" />
    <glyph glyph-name="Udieresis" unicode="&#xdc;" horiz-adv-x="741" 
d="M30 614v20h271v-20c-95 0 -107 -14 -107 -90v-316c0 -103 74 -176 200 -176c140 0 181 78 186 212l10 280c3 71 -33 90 -95 90v20h215v-20c-70 -8 -82 -28 -86 -154l-8 -234c-3 -116 -41 -234 -245 -234c-165 0 -257 70 -257 218v314c0 76 -12 90 -84 90zM413 745
c0 26 21 47 47 47s47 -21 47 -47s-21 -47 -47 -47s-47 21 -47 47zM235 745c0 26 21 47 47 47s47 -21 47 -47s-21 -47 -47 -47s-47 21 -47 47z" />
    <glyph glyph-name="Ugrave" unicode="&#xd9;" horiz-adv-x="741" 
d="M30 614v20h271v-20c-95 0 -107 -14 -107 -90v-316c0 -103 74 -176 200 -176c140 0 181 78 186 212l10 280c3 71 -33 90 -95 90v20h215v-20c-70 -8 -82 -28 -86 -154l-8 -234c-3 -116 -41 -234 -245 -234c-165 0 -257 70 -257 218v314c0 76 -12 90 -84 90zM429 670h-31
l-112 94c-27 22 -43 34 -43 49c0 16 13 25 33 25c22 0 31 -9 49 -32z" />
    <glyph glyph-name="Yacute" unicode="&#xdd;" horiz-adv-x="667" 
d="M29 634h243v-20c-44 0 -62 -12 -62 -30c0 -31 40 -85 147 -258c108 171 151 214 151 255c0 23 -14 33 -53 33v20h183v-20c-33 -3 -58 -13 -105 -80l-165 -237v-187c0 -85 14 -89 102 -90v-20h-290v20c88 1 102 5 102 90v188l-168 252c-35 52 -51 56 -85 64v20zM275 670
h-31l104 136c18 23 27 32 49 32c20 0 33 -9 33 -25c0 -15 -16 -27 -43 -49z" />
    <glyph glyph-name="Ydieresis" unicode="&#x178;" horiz-adv-x="667" 
d="M29 634h243v-20c-44 0 -62 -12 -62 -30c0 -31 40 -85 147 -258c108 171 151 214 151 255c0 23 -14 33 -53 33v20h183v-20c-33 -3 -58 -13 -105 -80l-165 -237v-187c0 -85 14 -89 102 -90v-20h-290v20c88 1 102 5 102 90v188l-168 252c-35 52 -51 56 -85 64v20zM364 745
c0 26 21 47 47 47s47 -21 47 -47s-21 -47 -47 -47s-47 21 -47 47zM186 745c0 26 21 47 47 47s47 -21 47 -47s-21 -47 -47 -47s-47 21 -47 47z" />
    <glyph glyph-name="Zcaron" unicode="&#x17d;" horiz-adv-x="630" 
d="M66 466h-23l30 190h21c6 -12 28 -22 79 -22h409c-141 -198 -287 -404 -417 -606c46 -2 92 -4 138 -4c142 0 214 15 273 152h26l-29 -176h-533c140 203 279 414 419 610h-188c-98 0 -154 -22 -205 -144zM330 670h-54l-108 168h28l107 -109l107 109h28z" />
    <glyph glyph-name="aacute" unicode="&#xe1;" horiz-adv-x="426" 
d="M258 203v81c0 69 -26 86 -68 86c-92 0 -54 -103 -113 -103c-17 0 -29 9 -29 27c0 37 90 100 167 100c67 0 113 -34 113 -120v-219c0 -23 14 -29 25 -29c15 0 25 6 35 15l10 -11c-14 -22 -48 -38 -78 -38c-31 0 -60 22 -62 59c-47 -43 -93 -59 -131 -59
c-57 0 -97 34 -97 78c0 69 57 89 174 119zM258 67v120l-40 -10c-75 -19 -114 -42 -114 -84c0 -37 21 -67 66 -67c32 0 61 20 88 41zM167 444h-31l104 136c18 23 27 32 49 32c20 0 33 -9 33 -25c0 -15 -16 -27 -43 -49z" />
    <glyph glyph-name="acircumflex" unicode="&#xe2;" horiz-adv-x="426" 
d="M258 203v81c0 69 -26 86 -68 86c-92 0 -54 -103 -113 -103c-17 0 -29 9 -29 27c0 37 90 100 167 100c67 0 113 -34 113 -120v-219c0 -23 14 -29 25 -29c15 0 25 6 35 15l10 -11c-14 -22 -48 -38 -78 -38c-31 0 -60 22 -62 59c-47 -43 -93 -59 -131 -59
c-57 0 -97 34 -97 78c0 69 57 89 174 119zM258 67v120l-40 -10c-75 -19 -114 -42 -114 -84c0 -37 21 -67 66 -67c32 0 61 20 88 41zM184 612h54l108 -168h-28l-107 107l-107 -107h-28z" />
    <glyph glyph-name="adieresis" unicode="&#xe4;" horiz-adv-x="426" 
d="M258 203v81c0 69 -26 86 -68 86c-92 0 -54 -103 -113 -103c-17 0 -29 9 -29 27c0 37 90 100 167 100c67 0 113 -34 113 -120v-219c0 -23 14 -29 25 -29c15 0 25 6 35 15l10 -11c-14 -22 -48 -38 -78 -38c-31 0 -60 22 -62 59c-47 -43 -93 -59 -131 -59
c-57 0 -97 34 -97 78c0 69 57 89 174 119zM258 67v120l-40 -10c-75 -19 -114 -42 -114 -84c0 -37 21 -67 66 -67c32 0 61 20 88 41zM78 519c0 26 21 47 47 47s47 -21 47 -47s-21 -47 -47 -47s-47 21 -47 47zM256 519c0 26 21 47 47 47s47 -21 47 -47s-21 -47 -47 -47
s-47 21 -47 47z" />
    <glyph glyph-name="agrave" unicode="&#xe0;" horiz-adv-x="426" 
d="M258 203v81c0 69 -26 86 -68 86c-92 0 -54 -103 -113 -103c-17 0 -29 9 -29 27c0 37 90 100 167 100c67 0 113 -34 113 -120v-219c0 -23 14 -29 25 -29c15 0 25 6 35 15l10 -11c-14 -22 -48 -38 -78 -38c-31 0 -60 22 -62 59c-47 -43 -93 -59 -131 -59
c-57 0 -97 34 -97 78c0 69 57 89 174 119zM258 67v120l-40 -10c-75 -19 -114 -42 -114 -84c0 -37 21 -67 66 -67c32 0 61 20 88 41zM272 444h-31l-112 94c-27 22 -43 34 -43 49c0 16 13 25 33 25c22 0 31 -9 49 -32z" />
    <glyph glyph-name="aring" unicode="&#xe5;" horiz-adv-x="426" 
d="M258 203v81c0 69 -26 86 -68 86c-92 0 -54 -103 -113 -103c-17 0 -29 9 -29 27c0 37 90 100 167 100c67 0 113 -34 113 -120v-219c0 -23 14 -29 25 -29c15 0 25 6 35 15l10 -11c-14 -22 -48 -38 -78 -38c-31 0 -60 22 -62 59c-47 -43 -93 -59 -131 -59
c-57 0 -97 34 -97 78c0 69 57 89 174 119zM121 526c0 51 41 92 92 92s92 -41 92 -92s-41 -92 -92 -92s-92 41 -92 92zM258 67v120l-40 -10c-75 -19 -114 -42 -114 -84c0 -37 21 -67 66 -67c32 0 61 20 88 41zM149 526c0 -35 29 -64 64 -64s64 29 64 64s-29 64 -64 64
s-64 -29 -64 -64z" />
    <glyph glyph-name="atilde" unicode="&#xe3;" horiz-adv-x="426" 
d="M258 203v81c0 69 -26 86 -68 86c-92 0 -54 -103 -113 -103c-17 0 -29 9 -29 27c0 37 90 100 167 100c67 0 113 -34 113 -120v-219c0 -23 14 -29 25 -29c15 0 25 6 35 15l10 -11c-14 -22 -48 -38 -78 -38c-31 0 -60 22 -62 59c-47 -43 -93 -59 -131 -59
c-57 0 -97 34 -97 78c0 69 57 89 174 119zM258 67v120l-40 -10c-75 -19 -114 -42 -114 -84c0 -37 21 -67 66 -67c32 0 61 20 88 41zM328 580h20c-1 -25 -4 -94 -84 -94c-22 0 -46 7 -64 13c-22 7 -40 13 -58 13c-36 0 -40 -19 -44 -38h-20c3 56 27 90 80 90
c19 0 39 -6 54 -11c18 -6 42 -11 72 -11c24 0 37 17 44 38z" />
    <glyph glyph-name="eacute" unicode="&#xe9;" horiz-adv-x="407" 
d="M361 258h-256c-4 -15 -7 -32 -7 -59c0 -89 54 -167 147 -167c40 0 72 14 116 44l12 -16c-45 -36 -89 -68 -154 -68c-119 0 -191 102 -191 190c0 126 88 212 193 212c84 0 150 -69 150 -131c0 -4 -3 -5 -10 -5zM110 282h191c-4 54 -39 92 -90 92c-58 0 -90 -47 -101 -92z
M169 444h-31l104 136c18 23 27 32 49 32c20 0 33 -9 33 -25c0 -15 -16 -27 -43 -49z" />
    <glyph glyph-name="ecircumflex" unicode="&#xea;" horiz-adv-x="407" 
d="M361 258h-256c-4 -15 -7 -32 -7 -59c0 -89 54 -167 147 -167c40 0 72 14 116 44l12 -16c-45 -36 -89 -68 -154 -68c-119 0 -191 102 -191 190c0 126 88 212 193 212c84 0 150 -69 150 -131c0 -4 -3 -5 -10 -5zM186 612h54l108 -168h-28l-107 107l-107 -107h-28zM110 282
h191c-4 54 -39 92 -90 92c-58 0 -90 -47 -101 -92z" />
    <glyph glyph-name="edieresis" unicode="&#xeb;" horiz-adv-x="407" 
d="M361 258h-256c-4 -15 -7 -32 -7 -59c0 -89 54 -167 147 -167c40 0 72 14 116 44l12 -16c-45 -36 -89 -68 -154 -68c-119 0 -191 102 -191 190c0 126 88 212 193 212c84 0 150 -69 150 -131c0 -4 -3 -5 -10 -5zM110 282h191c-4 54 -39 92 -90 92c-58 0 -90 -47 -101 -92z
M80 519c0 26 21 47 47 47s47 -21 47 -47s-21 -47 -47 -47s-47 21 -47 47zM258 519c0 26 21 47 47 47s47 -21 47 -47s-21 -47 -47 -47s-47 21 -47 47z" />
    <glyph glyph-name="egrave" unicode="&#xe8;" horiz-adv-x="407" 
d="M361 258h-256c-4 -15 -7 -32 -7 -59c0 -89 54 -167 147 -167c40 0 72 14 116 44l12 -16c-45 -36 -89 -68 -154 -68c-119 0 -191 102 -191 190c0 126 88 212 193 212c84 0 150 -69 150 -131c0 -4 -3 -5 -10 -5zM110 282h191c-4 54 -39 92 -90 92c-58 0 -90 -47 -101 -92z
M274 444h-31l-112 94c-27 22 -43 34 -43 49c0 16 13 25 33 25c22 0 31 -9 49 -32z" />
    <glyph glyph-name="iacute" unicode="&#xed;" horiz-adv-x="259" 
d="M36 0v16c46 0 58 14 58 88v137c0 69 -4 83 -33 87c-16 2 -21 5 -21 13c0 9 5 13 14 17c18 6 88 36 99 36c9 0 12 -5 12 -11c0 -10 -1 -42 -1 -75v-204c0 -74 12 -88 59 -88v-16h-187zM83 444h-31l104 136c18 23 27 32 49 32c20 0 33 -9 33 -25c0 -15 -16 -27 -43 -49z
" />
    <glyph glyph-name="icircumflex" unicode="&#xee;" horiz-adv-x="259" 
d="M36 0v16c46 0 58 14 58 88v137c0 69 -4 83 -33 87c-16 2 -21 5 -21 13c0 9 5 13 14 17c18 6 88 36 99 36c9 0 12 -5 12 -11c0 -10 -1 -42 -1 -75v-204c0 -74 12 -88 59 -88v-16h-187zM100 612h54l108 -168h-28l-107 107l-107 -107h-28z" />
    <glyph glyph-name="idieresis" unicode="&#xef;" horiz-adv-x="259" 
d="M36 0v16c46 0 58 14 58 88v137c0 69 -4 83 -33 87c-16 2 -21 5 -21 13c0 9 5 13 14 17c18 6 88 36 99 36c9 0 12 -5 12 -11c0 -10 -1 -42 -1 -75v-204c0 -74 12 -88 59 -88v-16h-187zM172 519c0 26 21 47 47 47s47 -21 47 -47s-21 -47 -47 -47s-47 21 -47 47zM-6 519
c0 26 21 47 47 47s47 -21 47 -47s-21 -47 -47 -47s-47 21 -47 47z" />
    <glyph glyph-name="igrave" unicode="&#xec;" horiz-adv-x="259" 
d="M36 0v16c46 0 58 14 58 88v137c0 69 -4 83 -33 87c-16 2 -21 5 -21 13c0 9 5 13 14 17c18 6 88 36 99 36c9 0 12 -5 12 -11c0 -10 -1 -42 -1 -75v-204c0 -74 12 -88 59 -88v-16h-187zM188 444h-31l-112 94c-27 22 -43 34 -43 49c0 16 13 25 33 25c22 0 31 -9 49 -32z" />
    <glyph glyph-name="ntilde" unicode="&#xf1;" horiz-adv-x="519" 
d="M25 0v16c54 0 66 14 66 90v187c0 23 -5 27 -24 39c-8 5 -12 7 -12 13c0 8 6 11 17 17c34 21 61 38 74 38c5 0 11 -3 11 -12v-41c27 18 68 47 133 47c59 0 137 -22 137 -139v-149c0 -76 12 -90 59 -90v-16h-188v16c47 0 59 14 59 90v132c0 81 -35 122 -104 122
c-41 0 -76 -31 -92 -50v-204c0 -76 12 -90 61 -90v-16h-197zM374 580h20c-1 -25 -4 -94 -84 -94c-22 0 -46 7 -64 13c-22 7 -40 13 -58 13c-36 0 -40 -19 -44 -38h-20c3 56 27 90 80 90c19 0 39 -6 54 -11c18 -6 42 -11 72 -11c24 0 37 17 44 38z" />
    <glyph glyph-name="oacute" unicode="&#xf3;" horiz-adv-x="463" 
d="M231 394c103 0 203 -74 203 -201s-100 -201 -203 -201s-203 74 -203 201s100 201 203 201zM231 374c-97 0 -123 -86 -123 -181s26 -181 123 -181s123 86 123 181s-26 181 -123 181zM185 444h-31l104 136c18 23 27 32 49 32c20 0 33 -9 33 -25c0 -15 -16 -27 -43 -49z" />
    <glyph glyph-name="ocircumflex" unicode="&#xf4;" horiz-adv-x="463" 
d="M231 394c103 0 203 -74 203 -201s-100 -201 -203 -201s-203 74 -203 201s100 201 203 201zM231 374c-97 0 -123 -86 -123 -181s26 -181 123 -181s123 86 123 181s-26 181 -123 181zM202 612h54l108 -168h-28l-107 107l-107 -107h-28z" />
    <glyph glyph-name="odieresis" unicode="&#xf6;" horiz-adv-x="463" 
d="M231 394c103 0 203 -74 203 -201s-100 -201 -203 -201s-203 74 -203 201s100 201 203 201zM231 374c-97 0 -123 -86 -123 -181s26 -181 123 -181s123 86 123 181s-26 181 -123 181zM96 519c0 26 21 47 47 47s47 -21 47 -47s-21 -47 -47 -47s-47 21 -47 47zM274 519
c0 26 21 47 47 47s47 -21 47 -47s-21 -47 -47 -47s-47 21 -47 47z" />
    <glyph glyph-name="ograve" unicode="&#xf2;" horiz-adv-x="463" 
d="M231 394c103 0 203 -74 203 -201s-100 -201 -203 -201s-203 74 -203 201s100 201 203 201zM231 374c-97 0 -123 -86 -123 -181s26 -181 123 -181s123 86 123 181s-26 181 -123 181zM290 444h-31l-112 94c-27 22 -43 34 -43 49c0 16 13 25 33 25c22 0 31 -9 49 -32z" />
    <glyph glyph-name="otilde" unicode="&#xf5;" horiz-adv-x="463" 
d="M231 394c103 0 203 -74 203 -201s-100 -201 -203 -201s-203 74 -203 201s100 201 203 201zM231 374c-97 0 -123 -86 -123 -181s26 -181 123 -181s123 86 123 181s-26 181 -123 181zM346 580h20c-1 -25 -4 -94 -84 -94c-22 0 -46 7 -64 13c-22 7 -40 13 -58 13
c-36 0 -40 -19 -44 -38h-20c3 56 27 90 80 90c19 0 39 -6 54 -11c18 -6 42 -11 72 -11c24 0 37 17 44 38z" />
    <glyph glyph-name="scaron" unicode="&#x161;" horiz-adv-x="333" 
d="M265 373l2 -66c0 -4 -2 -8 -6 -8c-5 0 -8 3 -10 6c-19 35 -46 69 -85 69c-30 0 -54 -20 -54 -58c0 -99 182 -81 182 -204c0 -47 -47 -120 -141 -120c-57 0 -115 33 -115 52c0 6 10 45 10 54c0 7 5 10 11 10c14 0 21 -96 100 -96c31 0 69 22 69 71c0 100 -182 94 -182 204
c0 53 47 107 135 107c23 0 56 -6 77 -13c4 -1 7 -4 7 -8zM193 444h-54l-108 168h28l107 -109l107 109h28z" />
    <glyph glyph-name="uacute" unicode="&#xfa;" horiz-adv-x="519" 
d="M30 386l128 8v-266c0 -70 38 -102 88 -102c47 0 101 36 110 65v163c0 96 -10 107 -64 116v16l134 8v-304c0 -30 8 -47 25 -47c16 0 27 5 37 8v-23l-126 -32v61c-31 -29 -70 -65 -152 -65c-105 0 -122 64 -122 134v99c0 125 -9 136 -58 145v16zM213 444h-31l104 136
c18 23 27 32 49 32c20 0 33 -9 33 -25c0 -15 -16 -27 -43 -49z" />
    <glyph glyph-name="ucircumflex" unicode="&#xfb;" horiz-adv-x="519" 
d="M30 386l128 8v-266c0 -70 38 -102 88 -102c47 0 101 36 110 65v163c0 96 -10 107 -64 116v16l134 8v-304c0 -30 8 -47 25 -47c16 0 27 5 37 8v-23l-126 -32v61c-31 -29 -70 -65 -152 -65c-105 0 -122 64 -122 134v99c0 125 -9 136 -58 145v16zM230 612h54l108 -168h-28
l-107 107l-107 -107h-28z" />
    <glyph glyph-name="udieresis" unicode="&#xfc;" horiz-adv-x="519" 
d="M30 386l128 8v-266c0 -70 38 -102 88 -102c47 0 101 36 110 65v163c0 96 -10 107 -64 116v16l134 8v-304c0 -30 8 -47 25 -47c16 0 27 5 37 8v-23l-126 -32v61c-31 -29 -70 -65 -152 -65c-105 0 -122 64 -122 134v99c0 125 -9 136 -58 145v16zM302 519c0 26 21 47 47 47
s47 -21 47 -47s-21 -47 -47 -47s-47 21 -47 47zM124 519c0 26 21 47 47 47s47 -21 47 -47s-21 -47 -47 -47s-47 21 -47 47z" />
    <glyph glyph-name="ugrave" unicode="&#xf9;" horiz-adv-x="519" 
d="M30 386l128 8v-266c0 -70 38 -102 88 -102c47 0 101 36 110 65v163c0 96 -10 107 -64 116v16l134 8v-304c0 -30 8 -47 25 -47c16 0 27 5 37 8v-23l-126 -32v61c-31 -29 -70 -65 -152 -65c-105 0 -122 64 -122 134v99c0 125 -9 136 -58 145v16zM318 444h-31l-112 94
c-27 22 -43 34 -43 49c0 16 13 25 33 25c22 0 31 -9 49 -32z" />
    <glyph glyph-name="yacute" unicode="&#xfd;" 
d="M18 386h181v-16c-37 -1 -49 -12 -49 -36c0 -35 68 -162 94 -263h2c30 97 80 231 80 260c0 28 -19 34 -44 39v16h124v-16c-24 -10 -33 -20 -57 -84l-146 -394c-23 -63 -54 -128 -107 -128c-27 0 -40 18 -40 35c0 25 18 35 69 46c28 6 35 8 56 66c12 33 24 65 24 75
c0 6 -3 12 -7 21l-127 311c-13 31 -23 44 -53 52v16zM176 444h-31l104 136c18 23 27 32 49 32c20 0 33 -9 33 -25c0 -15 -16 -27 -43 -49z" />
    <glyph glyph-name="ydieresis" unicode="&#xff;" 
d="M18 386h181v-16c-37 -1 -49 -12 -49 -36c0 -35 68 -162 94 -263h2c30 97 80 231 80 260c0 28 -19 34 -44 39v16h124v-16c-24 -10 -33 -20 -57 -84l-146 -394c-23 -63 -54 -128 -107 -128c-27 0 -40 18 -40 35c0 25 18 35 69 46c28 6 35 8 56 66c12 33 24 65 24 75
c0 6 -3 12 -7 21l-127 311c-13 31 -23 44 -53 52v16zM265 519c0 26 21 47 47 47s47 -21 47 -47s-21 -47 -47 -47s-47 21 -47 47zM87 519c0 26 21 47 47 47s47 -21 47 -47s-21 -47 -47 -47s-47 21 -47 47z" />
    <glyph glyph-name="zcaron" unicode="&#x17e;" horiz-adv-x="463" 
d="M140 24h132c84 0 111 40 145 98h16l-30 -122h-359l2 13l270 349h-115c-67 0 -109 -38 -138 -92h-18l34 116h331zM258 444h-54l-108 168h28l107 -109l107 109h28z" />
    <glyph glyph-name="nbspace" unicode="&#xa0;" horiz-adv-x="222" 
 />
    <glyph glyph-name="Euro" unicode="&#x20ac;" 
d="M27 280h33v21c0 15 0 32 2 49h-42l7 34h38c17 126 76 258 212 258c48 0 112 -21 145 -53l-5 -124h-18c-14 70 -44 157 -132 157c-59 0 -117 -75 -130 -238h218l-7 -34h-213c-1 -13 -1 -26 -1 -40v-30h203l-7 -34h-194c13 -141 69 -234 144 -234c61 0 106 47 129 141h20
l-8 -100c-30 -38 -95 -61 -143 -61c-141 0 -202 129 -215 254h-43z" />
  </font>
</defs>
</svg>
